<svg width="55" height="19" viewBox="0 0 55 19" fill="none" xmlns="http://www.w3.org/2000/svg">
<path d="M10.5603 8.16604V10.7789C10.5603 10.9037 10.5843 11.0233 10.395 11.0753C8.14463 11.6811 5.88823 11.9099 3.63183 11.1195C1.54368 10.3837 0.46806 8.9226 0.137562 7.05329C-0.140648 5.74037 0.00489783 4.38648 0.558196 3.14049C1.38144 1.41417 2.9468 0.486021 5.0109 0.155837C6.69556 -0.10039 8.42419 -0.0400983 10.0795 0.332626C10.362 0.392423 10.5062 0.473021 10.4371 0.769407C10.356 1.12299 10.2688 1.47657 10.1847 1.83275C10.1336 2.04334 10.0195 2.05374 9.81214 1.99655C8.7107 1.69983 7.55688 1.57568 6.40501 1.62996C3.9473 1.71316 2.33988 3.07809 2.19867 5.19959C2.09873 6.0798 2.22809 6.9682 2.57724 7.79946C3.20518 9.15139 4.42502 9.81176 6.05347 9.97035C6.74702 10.0245 7.44572 10.0018 8.13261 9.90275C8.37898 9.87155 8.48414 9.80136 8.48113 9.55697C8.46311 8.24144 8.48113 6.9233 8.46311 5.60777C8.46311 5.34778 8.53822 5.29058 8.82064 5.30358C9.28635 5.32438 9.75505 5.32178 10.2238 5.30358C10.4821 5.30358 10.5723 5.34518 10.5663 5.58697C10.5482 6.44492 10.5603 7.30548 10.5603 8.16604Z" fill="#C6262C"/>
<path d="M29.5337 7.33146C29.5337 6.08872 29.5337 4.84598 29.5337 3.60064C29.5337 3.47325 29.4916 3.34065 29.729 3.29906C31.4476 2.97407 33.1692 2.73749 34.9328 3.00787C35.5515 3.08469 36.1398 3.28887 36.6484 3.60324C37.5017 4.16481 37.7541 4.96558 37.7631 5.83133C37.7841 7.59145 37.7631 9.35416 37.7631 11.1169C37.7631 11.3197 37.676 11.3561 37.4626 11.3509C36.9729 11.3509 36.4802 11.3353 35.9874 11.3509C35.7471 11.3509 35.687 11.2911 35.687 11.0909C35.687 9.53095 35.687 7.97102 35.687 6.4267C35.6935 6.2194 35.6864 6.01195 35.6659 5.80533C35.5638 4.96297 35.0109 4.5288 33.9383 4.4378C33.22 4.38967 32.4979 4.40797 31.7841 4.4924C31.5167 4.52099 31.5678 4.66659 31.5678 4.80438V10.3681C31.5678 10.6073 31.5497 10.8465 31.5678 11.0831C31.5858 11.3197 31.4866 11.3613 31.2463 11.3431C30.7776 11.3275 30.3089 11.3249 29.8432 11.3431C29.5758 11.3431 29.4946 11.2937 29.4976 11.0545C29.5397 9.81953 29.5337 8.57679 29.5337 7.33146Z" fill="#C6262C"/>
<path d="M54.9492 9.79888C54.868 10.2695 54.7869 10.6984 54.7268 11.1274C54.7218 11.1835 54.6945 11.2364 54.6496 11.2772C54.6048 11.3179 54.545 11.344 54.4805 11.351C53.4672 11.6347 52.3741 11.621 51.3708 11.312C50.3342 10.9792 49.8685 10.2565 49.7513 9.3491C49.7208 9.10215 49.7068 8.85388 49.7093 8.60554C49.7093 5.96927 49.7093 3.3356 49.7093 0.701928C49.7093 0.467939 49.7663 0.356148 50.0578 0.30675C50.5388 0.223151 51.0255 0.166699 51.515 0.137756C51.7253 0.137756 51.7734 0.192356 51.7734 0.363948C51.7734 1.20371 51.7734 2.04346 51.7734 2.88322C51.7734 3.12501 51.8545 3.17441 52.1159 3.16921C52.9812 3.15621 53.8435 3.16921 54.7088 3.16921C54.9401 3.16921 55.0303 3.2082 54.9912 3.42919C54.9281 3.75418 54.9011 4.08696 54.874 4.41715C54.856 4.61734 54.7719 4.69793 54.5195 4.69273C53.7053 4.67713 52.8881 4.69273 52.0708 4.69273C51.8365 4.69273 51.7704 4.74473 51.7704 4.95272C51.7704 6.19806 51.7704 7.44339 51.7704 8.68613C51.7704 9.61169 52.3112 10.0563 53.3748 10.0589C53.9115 10.0394 54.4419 9.95183 54.9492 9.79888Z" fill="#C6262C"/>
<path d="M27.9953 9.80928C27.9552 10.2682 27.885 10.7248 27.785 11.1768C27.7609 11.2964 27.6708 11.3198 27.5656 11.3484C26.5416 11.637 25.4355 11.6214 24.4229 11.3042C23.3413 10.948 22.8876 10.1811 22.8185 9.23991C22.7644 8.51714 22.7914 7.78918 22.7914 7.06381C22.7914 4.94752 22.7914 2.83382 22.7914 0.720129C22.7914 0.441943 22.8936 0.340546 23.191 0.296349C23.6495 0.218753 24.1131 0.165787 24.5791 0.137756C24.7834 0.137756 24.8435 0.181956 24.8405 0.358747C24.8405 1.2089 24.8405 2.05906 24.8405 2.90922C24.8405 3.11461 24.9036 3.16921 25.141 3.16921C26.0153 3.16921 26.8926 3.16921 27.7669 3.16921C28.0253 3.16921 28.1064 3.22381 28.0674 3.4474C28.0073 3.77498 27.9682 4.10516 27.9412 4.43534C27.9412 4.63033 27.842 4.69533 27.6077 4.69533C26.7784 4.67973 25.9522 4.69533 25.1229 4.69533C24.9096 4.69533 24.8225 4.73433 24.8405 4.93192C24.8405 6.17726 24.8405 7.42 24.8405 8.66533C24.8405 9.62469 25.3903 10.0615 26.499 10.0537C27.0081 10.0299 27.5112 9.94774 27.9953 9.80928Z" fill="#C6262C"/>
<path d="M22.5452 15.2326C22.7676 15.555 22.9719 15.8592 23.1792 16.1608L23.8131 17.0811C23.9162 16.9452 23.971 16.7861 23.971 16.6235C23.971 16.461 23.9162 16.3019 23.8131 16.166C23.6148 15.8592 23.3955 15.5628 23.1912 15.2586C23.0832 15.1137 23.0257 14.9449 23.0257 14.7724C23.0257 14.6 23.0832 14.4312 23.1912 14.2863C23.5157 14.8998 24.0445 15.3938 24.2728 16.0256C24.3149 16.1426 24.414 16.1556 24.5132 16.1842C24.8244 16.26 25.1139 16.3911 25.3635 16.5689C25.8833 16.9563 25.8803 17.4373 25.3364 17.8039C24.7453 18.1642 24.034 18.3469 23.3114 18.3239C22.5897 18.3695 21.8682 18.2322 21.2353 17.9287C20.391 17.4945 20.391 16.8445 21.2353 16.4052C21.3074 16.3688 21.3825 16.335 21.4576 16.3038C21.9563 16.0984 21.9563 16.0984 22.1606 16.5143C22.1731 16.5427 22.1892 16.5698 22.2087 16.5949C22.5092 17.0577 22.8367 17.5179 23.1672 18.0041C23.2684 17.8725 23.3239 17.7185 23.3271 17.5605C23.3303 17.4024 23.281 17.2469 23.1852 17.1123C22.9899 16.8029 22.7736 16.5039 22.5663 16.2024C22.4553 16.0596 22.3944 15.8922 22.3906 15.7202C22.3869 15.5482 22.4406 15.3789 22.5452 15.2326Z" fill="#C6262C"/>
<path d="M27.6229 18.2537C27.4069 18.2541 27.1914 18.2349 26.98 18.1965C26.7516 18.1523 26.7006 18.0665 26.7546 17.8689C26.8087 17.6713 26.9619 17.7623 27.0821 17.7857C27.3937 17.8687 27.7244 17.8821 28.0436 17.8247C28.2148 17.7805 28.344 17.7181 28.3831 17.5465C28.3986 17.4744 28.386 17.3998 28.3475 17.3344C28.3089 17.2691 28.2464 17.2166 28.1698 17.1851C27.9144 17.0681 27.65 16.9719 27.3916 16.8653C27.2568 16.8208 27.1339 16.7528 27.0305 16.6656C26.9272 16.5785 26.8456 16.4739 26.7907 16.3584C26.7498 16.2655 26.7319 16.1661 26.7382 16.0669C26.7445 15.9676 26.7749 15.8706 26.8273 15.7821C26.8797 15.6936 26.953 15.6156 27.0424 15.5532C27.1319 15.4908 27.2355 15.4454 27.3465 15.4198C27.7655 15.321 28.2075 15.321 28.6265 15.4198C28.8488 15.4588 28.7887 15.5836 28.7647 15.7032C28.7406 15.8228 28.6745 15.867 28.5183 15.828C28.2552 15.7524 27.9751 15.7319 27.7011 15.7682C27.5178 15.7968 27.3495 15.8618 27.3135 16.0464C27.2973 16.1239 27.3119 16.2039 27.355 16.2734C27.3981 16.3428 27.4672 16.3975 27.5508 16.4286C27.7942 16.5378 28.0526 16.6236 28.299 16.7276C28.8398 16.9589 29.0291 17.2475 28.9329 17.6583C28.8518 17.9937 28.4822 18.2173 27.9474 18.2511C27.8272 18.2589 27.7311 18.2537 27.6229 18.2537Z" fill="#C6262C"/>
<path d="M39.1634 17.1877C39.1634 16.9277 39.1634 16.6469 39.1634 16.3791C39.1634 16.2648 39.1634 16.1764 39.3347 16.153C39.7787 16.0586 40.2413 16.0497 40.6897 16.127C40.864 16.1502 41.0227 16.2272 41.1365 16.3438C41.2503 16.4604 41.3114 16.6087 41.3086 16.7613C41.3297 17.1851 41.3086 17.6115 41.3086 18.0353C41.3086 18.2173 41.1855 18.2043 41.0533 18.1991C40.9211 18.1939 40.7528 18.2381 40.7528 18.0327C40.7528 17.6479 40.7528 17.2657 40.7528 16.8809C40.7674 16.8032 40.7501 16.7236 40.704 16.6557C40.658 16.5878 40.5859 16.536 40.5004 16.5091C40.262 16.4325 39.9997 16.4325 39.7613 16.5091C39.6532 16.5481 39.6952 16.6547 39.6952 16.7327C39.6952 17.1487 39.6802 17.5621 39.6952 17.9781C39.6952 18.1887 39.5931 18.2043 39.3948 18.2121C39.1965 18.2198 39.1424 18.1315 39.1484 17.9703C39.1724 17.7051 39.1634 17.4451 39.1634 17.1877Z" fill="#C6262C"/>
<path d="M32.1145 17.1875C32.1145 16.9275 32.1145 16.652 32.1145 16.3816C32.1145 16.2672 32.1295 16.1788 32.2858 16.1554C32.7512 16.0519 33.2386 16.0466 33.7069 16.1398C33.8666 16.1698 34.0093 16.2469 34.1107 16.3579C34.2121 16.4688 34.2658 16.6067 34.2628 16.7481C34.2628 17.1719 34.2628 17.5983 34.2628 18.0195C34.2628 18.2197 34.1336 18.1963 33.9863 18.2015C33.8391 18.2067 33.7189 18.2015 33.7249 18.0065C33.74 17.6659 33.7249 17.3253 33.7249 16.9847C33.7234 16.8872 33.6931 16.7916 33.6371 16.707C33.581 16.6223 33.5009 16.5514 33.4045 16.501C33.308 16.4505 33.1982 16.4221 33.0856 16.4185C32.9729 16.4149 32.861 16.4362 32.7605 16.4804C32.6163 16.535 32.6583 16.6286 32.6583 16.7143C32.6583 17.1381 32.6583 17.5619 32.6583 17.9857C32.6583 18.1755 32.5712 18.2067 32.3849 18.2041C32.1986 18.2015 32.0845 18.2041 32.0845 17.9935C32.1295 17.7257 32.1145 17.4579 32.1145 17.1875Z" fill="#C6262C"/>
<path d="M36.1286 17.8375C36.1436 18.0481 36.1466 18.2119 35.8522 18.2457C35.3444 18.3029 34.9508 18.1573 34.8427 17.8401C34.8074 17.7195 34.7902 17.5954 34.7916 17.471C34.7916 16.8834 34.7916 16.2932 34.7916 15.7057C34.7916 15.4457 34.9298 15.3911 35.1732 15.3859C35.4736 15.3859 35.3114 15.5705 35.3414 15.6745C35.3564 15.7353 35.3564 15.7982 35.3414 15.859C35.2903 16.1008 35.4165 16.1736 35.6749 16.1398C35.783 16.1346 35.8913 16.1346 35.9994 16.1398C36.0895 16.1398 36.1767 16.1554 36.1556 16.2568C36.1346 16.3582 36.2097 16.4726 36.0415 16.5168C36.0065 16.5195 35.9713 16.5195 35.9363 16.5168C35.3354 16.5584 35.3354 16.5584 35.3354 17.0732V17.2578C35.3384 17.8557 35.4255 17.9233 36.1286 17.8375Z" fill="#C6262C"/>
<path d="M17.0679 16.21C17.3413 16.1216 17.4344 16.21 17.5125 16.3894C17.7319 16.8808 17.9722 17.3643 18.2306 17.9077C18.477 17.3643 18.7053 16.8678 18.9187 16.379C18.9938 16.1996 19.0989 16.119 19.3453 16.2152C18.9637 17.0159 18.5912 17.8167 18.1976 18.6123C18.1393 18.7397 18.0333 18.8466 17.8966 18.9158C17.76 18.9851 17.6004 19.0128 17.4434 18.9944C17.3623 18.9944 17.2662 19.0074 17.2632 18.8956C17.2602 18.7839 17.2962 18.7371 17.4284 18.7475C17.5245 18.7556 17.6212 18.7395 17.707 18.7012C17.7928 18.663 17.864 18.6041 17.9121 18.5317C17.9739 18.4632 18.0122 18.3811 18.0228 18.2947C18.0335 18.2083 18.0159 18.1211 17.9722 18.0429C17.6568 17.4397 17.3683 16.8288 17.0679 16.21Z" fill="#C6262C"/>
<path d="M47.6991 17.3437C47.6991 17.5517 47.6991 17.7597 47.6991 17.9651C47.6991 18.1705 47.624 18.2069 47.3986 18.2069C47.1733 18.2069 47.1312 18.1575 47.1373 17.9781C47.1493 17.4581 47.1493 16.9303 47.1373 16.3948C47.1373 16.2284 47.1943 16.1556 47.3866 16.1348C47.6946 16.0924 48.0062 16.0732 48.318 16.0776C48.4803 16.0776 48.5223 16.14 48.5103 16.2674C48.4983 16.3948 48.4893 16.4546 48.315 16.4676C47.6841 16.5117 47.6841 16.5195 47.6841 17.0681L47.6991 17.3437Z" fill="#C6262C"/>
<path d="M21.0758 5.9094C21.0248 5.23567 20.7274 4.59344 20.2268 4.0756C19.7261 3.55775 19.048 3.19113 18.2906 3.02875C17.7664 2.91548 17.2259 2.86905 16.6862 2.89095C14.529 2.96375 13.1199 3.9075 12.6181 5.64942C12.3252 6.64929 12.3252 7.69659 12.6181 8.69646C12.9396 9.81701 13.6637 10.688 14.9196 11.1247C16.6473 11.7152 18.5717 11.7058 20.2917 11.0987C20.3788 11.0727 20.4779 11.0545 20.502 10.9532C20.6131 10.4592 20.7273 9.9652 20.8024 9.43743L20.4329 9.55962C19.4257 9.90247 18.3477 10.0618 17.2661 10.0276C15.8029 9.9834 14.9376 9.39583 14.5831 8.25709C14.4959 7.9737 14.562 7.9139 14.8835 7.9165C16.8184 7.9295 18.7503 7.9165 20.6823 7.9295C20.9467 7.9295 21.0368 7.86451 21.0548 7.64612C21.1234 7.069 21.1304 6.48764 21.0758 5.9094ZM18.8134 6.44238H16.7103C16.0643 6.44238 15.4153 6.42938 14.7723 6.44238C14.4719 6.44238 14.4479 6.37998 14.4959 6.14599C14.7964 4.72386 16.0823 4.0323 17.6387 4.47167C18.0635 4.60367 18.429 4.84905 18.6822 5.17241C18.9355 5.49577 19.0635 5.88039 19.0478 6.27078C19.0508 6.46057 18.9336 6.44238 18.8134 6.44238Z" fill="#C6262C"/>
<path d="M48.0141 6.01339C47.8819 4.50547 46.8123 3.37972 45.1989 3.02614C44.6748 2.91232 44.1341 2.86675 43.5945 2.89094C41.4583 2.97414 40.0762 3.8919 39.5594 5.60261C39.253 6.62126 39.253 7.69081 39.5594 8.70946C39.9049 9.9002 40.7101 10.7894 42.0682 11.2001C43.7359 11.7083 45.5599 11.6769 47.2029 11.1117C47.273 11.0985 47.3363 11.0661 47.3834 11.0192C47.4305 10.9724 47.4588 10.9137 47.4643 10.8518C47.5454 10.3942 47.6476 9.9366 47.7648 9.42442C47.5995 9.47902 47.4853 9.51282 47.3742 9.55182C46.3574 9.9008 45.2673 10.0611 44.1744 10.0224C42.7322 9.9704 41.8789 9.39062 41.5244 8.26228C41.4402 8.00229 41.4613 7.9061 41.8248 7.9087C43.7567 7.9269 45.6886 7.9087 47.6205 7.9217C47.8609 7.9217 47.9721 7.8957 47.9991 7.66171C48.0553 7.11351 48.0603 6.56229 48.0141 6.01339ZM45.6976 6.44757C45.0246 6.43457 44.3546 6.44757 43.6816 6.44757C43.0086 6.44757 42.3356 6.44757 41.6656 6.44757C41.4432 6.44757 41.3651 6.41117 41.4162 6.20578C41.5995 5.42582 41.942 4.73686 42.9185 4.47427C44.5139 4.04789 45.7788 4.76285 45.962 6.17978C45.9981 6.37997 45.947 6.45017 45.6976 6.44757Z" fill="#C6262C"/>
<path d="M43.9974 16.8003C43.9974 16.4182 43.9974 16.0334 43.9974 15.6512C43.9974 15.5368 44.0815 15.36 43.7991 15.3912C43.6008 15.4094 43.4656 15.4328 43.4716 15.6512C43.4716 16.0568 43.4716 16.0542 42.9699 16.0776C42.4681 16.101 42.0685 16.2154 41.8762 16.6157C41.7574 16.8205 41.7042 17.0492 41.7222 17.2778C41.7401 17.5064 41.8286 17.7267 41.9784 17.9157C42.1236 18.0829 42.334 18.1988 42.5705 18.2418C42.807 18.2848 43.0536 18.2521 43.2643 18.1497C43.3635 18.1003 43.4416 17.9391 43.5467 18.1705C43.5828 18.2485 43.7931 18.2147 43.9193 18.1913C44.0455 18.1679 43.9974 18.0561 43.9974 17.9833C44.0004 17.5855 43.9974 17.1929 43.9974 16.8003ZM43.4746 17.1435C43.4686 17.2258 43.4686 17.3083 43.4746 17.3905C43.5107 17.6505 43.4536 17.8325 43.1051 17.8767C42.9477 17.9133 42.7802 17.897 42.6363 17.8308C42.4924 17.7647 42.3829 17.6538 42.3299 17.5205C42.0895 16.9121 42.4711 16.4207 43.1441 16.4571C43.3845 16.4571 43.5197 16.5351 43.4746 16.7717C43.4641 16.8955 43.4641 17.0198 43.4746 17.1435Z" fill="#C6262C"/>
<path d="M46.1545 16.1635C45.9428 16.0737 45.7055 16.0389 45.4714 16.0633C45.2373 16.0878 45.0165 16.1704 44.8355 16.3012C44.3969 16.6314 44.3818 17.0812 44.505 17.531C44.5509 17.7146 44.6629 17.881 44.8248 18.0062C44.9867 18.1313 45.1903 18.2089 45.4064 18.2278C45.6787 18.2637 45.956 18.2593 46.2266 18.2148C46.5451 18.1706 46.6412 18.0224 46.5751 17.7442C46.3038 17.8263 46.0184 17.8685 45.7309 17.869C45.6049 17.8759 45.4791 17.8535 45.3666 17.8042C45.254 17.7548 45.1588 17.6802 45.0909 17.5882C44.9918 17.44 44.9467 17.3282 45.2441 17.3282C45.6377 17.3412 46.0343 17.3282 46.4279 17.3282C46.5481 17.3282 46.6623 17.3438 46.7073 17.1982C46.7597 16.9971 46.7339 16.7867 46.634 16.5996C46.534 16.4125 46.3655 16.2592 46.1545 16.1635ZM45.9172 16.9642C45.797 16.9642 45.6768 16.9642 45.5566 16.9642C45.4846 16.9694 45.4123 16.9694 45.3403 16.9642C45.2321 16.9486 45.0729 17.0292 45.0248 16.9018C45.0127 16.8399 45.0215 16.7762 45.0503 16.7185C45.0791 16.6609 45.1266 16.6116 45.1871 16.5768C45.2518 16.5274 45.3281 16.4907 45.4107 16.469C45.4933 16.4474 45.5804 16.4415 45.6659 16.4516C45.7515 16.4617 45.8335 16.4877 45.9064 16.5277C45.9793 16.5677 46.0414 16.6208 46.0884 16.6834C46.1846 16.8472 46.2116 16.985 45.9021 16.9642H45.9172Z" fill="#C6262C"/>
<path d="M31.5435 17.9598C31.5435 17.6998 31.5435 17.4632 31.5435 17.2162C31.5435 16.9692 31.5435 16.6572 31.5435 16.3764C31.5435 16.2438 31.5075 16.1606 31.3422 16.1346C30.9464 16.0591 30.5363 16.0591 30.1404 16.1346C29.9214 16.1738 29.7227 16.2727 29.5734 16.4169C29.4241 16.561 29.3322 16.7427 29.3112 16.9354C29.2421 17.3774 29.2781 17.822 29.7528 18.1053C29.907 18.2067 30.0935 18.2646 30.287 18.2711C30.4805 18.2776 30.6716 18.2325 30.8344 18.1417C30.9306 18.0923 30.9877 17.9987 31.0838 18.1651C31.1349 18.2613 31.3272 18.2171 31.4534 18.1963C31.5796 18.1755 31.5405 18.0403 31.5435 17.9598ZM30.6842 17.8688C30.5396 17.9067 30.3841 17.8994 30.2451 17.848C30.1061 17.7967 29.9924 17.7046 29.9241 17.588C29.6026 17.0108 29.9902 16.4466 30.6992 16.4492C30.9456 16.4492 31.0508 16.5194 31.0207 16.7378C31.0117 16.872 31.0117 17.0066 31.0207 17.1408C31.0207 17.224 31.0207 17.3072 31.0207 17.4008C31.0418 17.6192 31.0327 17.8298 30.6842 17.8688Z" fill="#C6262C"/>
<path d="M38.5863 17.9753C38.5863 17.7153 38.5863 17.4553 38.5863 17.1953V16.7299C38.5863 16.093 38.5863 16.0904 37.8412 16.0696H37.697C36.6063 16.0696 36.0385 16.7767 36.414 17.6685C36.4614 17.7954 36.5425 17.9109 36.6509 18.0058C36.7592 18.1006 36.8918 18.1722 37.0379 18.2146C37.184 18.2571 37.3396 18.2694 37.4921 18.2504C37.6447 18.2314 37.79 18.1817 37.9163 18.1053C38.0365 18.0403 38.0455 18.0273 38.1206 18.1495C38.1957 18.2717 38.388 18.2067 38.5202 18.1833C38.6524 18.1599 38.5833 18.0481 38.5863 17.9753ZM38.0605 17.1277V17.4033C38.0605 17.5853 38.1146 17.7881 37.8111 17.8453C37.5077 17.9025 37.2102 17.9155 37.03 17.6763C36.9292 17.5461 36.8707 17.3949 36.8606 17.2385C36.8506 17.0821 36.8894 16.9262 36.9729 16.7871C37.0452 16.6727 37.1553 16.5795 37.289 16.5193C37.4228 16.4591 37.5742 16.4347 37.724 16.4492C37.9854 16.4492 38.0996 16.5168 38.0635 16.7507C38.0534 16.8762 38.0524 17.0021 38.0605 17.1277Z" fill="#C6262C"/>
<path d="M15.5745 16.1453C15.1479 16.1947 15.0848 16.0829 15.1389 15.7813C15.1464 15.7504 15.1464 15.7185 15.1389 15.6877C15.1148 15.6019 15.214 15.4615 15.0067 15.4563C14.7994 15.4511 14.7994 15.5551 14.8024 15.6851C14.8024 16.0569 14.8024 16.4313 14.8024 16.803V17.5492C14.8024 18.2434 14.8204 18.2564 15.6436 18.2486C16.4669 18.2408 16.8845 17.843 16.8454 17.0838C16.8124 16.413 16.3707 16.0491 15.5745 16.1453ZM16.3767 17.6844C16.1875 17.9938 15.8299 18.0068 15.4754 17.999C15.214 17.999 15.1178 17.9002 15.1419 17.6766C15.1524 17.5121 15.1524 17.3471 15.1419 17.1826C15.1298 17.0902 15.1298 16.9969 15.1419 16.9044C15.1869 16.7354 14.9917 16.4989 15.3222 16.4079C15.5017 16.3464 15.6994 16.3364 15.886 16.3795C16.0727 16.4225 16.2384 16.5163 16.3587 16.647C16.4664 16.8035 16.5247 16.9816 16.5279 17.1636C16.5311 17.3457 16.4789 17.5252 16.3767 17.6844Z" fill="#C6262C"/>
</svg>
