    <svg width="41" height="25" viewBox="0 0 41 25" fill="none" xmlns="http://www.w3.org/2000/svg">
<path d="M20.5073 24.993C16.3007 24.993 12.2246 24.4237 8.3953 22.8156C5.45106 21.5714 2.98635 19.8357 1.38905 17.2633C0.582756 15.9296 0.119277 14.4555 0.0315209 12.9459C-0.282297 9.03914 1.76986 6.2148 5.17249 3.997C8.219 2.00939 11.6957 0.914487 15.398 0.3857C20.9798 -0.410591 26.431 -0.0124456 31.6778 1.94096C34.4316 2.95809 36.8822 4.37026 38.751 6.46364C40.1024 7.92241 40.8851 9.72646 40.983 11.6084C41.2404 16.467 38.5536 19.7984 34.0297 22.1842C30.8562 23.8607 27.3302 24.6041 23.656 24.909C22.6089 24.9865 21.5578 25.0145 20.5073 24.993Z" fill="#0B0080"/>
<path d="M9.69311 15.403C9.97872 15.6519 10.2185 15.9567 10.6698 15.9785C10.6869 15.9694 10.7064 15.9646 10.7262 15.9646C10.7461 15.9646 10.7656 15.9694 10.7827 15.9785C10.8032 16.0064 10.8153 16.0386 10.8179 16.0718C11.0429 16.079 11.2669 16.1019 11.4879 16.1402C11.5115 16.1419 11.5344 16.1481 11.5551 16.1583C11.5758 16.1685 11.5937 16.1825 11.6077 16.1993C11.7565 16.6262 12.0554 17.0004 12.461 17.2676C12.8667 17.5349 13.3581 17.6815 13.8644 17.6862C13.9685 17.6684 14.0763 17.6812 14.1712 17.7228C14.2662 17.7644 14.343 17.8324 14.3898 17.9163C14.4717 18.0765 14.6119 18.2079 14.7882 18.2896C15.0355 18.3776 15.2661 18.4982 15.4723 18.6473C15.566 18.7134 15.684 18.7466 15.8037 18.7406C16.0807 18.6912 16.366 18.6912 16.6429 18.7406C17.0343 18.7873 17.1154 19.1388 17.327 19.3378C17.5575 19.5646 17.844 19.7418 18.1643 19.8555C18.4846 19.9693 18.8303 20.0168 19.1746 19.9942C19.2769 19.9942 19.3897 19.9693 19.4567 20.0688C19.2861 20.1312 19.0983 20.1475 18.9172 20.1155C19.0125 20.0968 19.2487 20.1901 19.4638 20.0719C19.6264 19.9187 19.8448 19.8208 20.0808 19.7951C20.169 19.7951 20.2466 19.7951 20.2783 19.6955C20.4581 19.4156 20.6944 19.3845 21.0188 19.5214C21.8016 19.8324 22.6055 20.0501 23.487 19.7857C23.7298 19.7365 23.9469 19.6172 24.1041 19.4467C24.1682 19.361 24.2597 19.2939 24.367 19.2541C24.4744 19.2142 24.5927 19.2033 24.707 19.2227C24.9142 19.162 25.1381 19.162 25.3452 19.2227C25.8886 19.156 26.388 18.9225 26.7557 18.5633C26.7874 18.5633 26.8332 18.5447 26.8438 18.5198C26.9289 18.3295 27.086 18.171 27.2884 18.0712C27.4909 17.9715 27.7262 17.9365 27.9545 17.9723L28.903 17.54C29.0575 17.5002 29.198 17.4266 29.3114 17.326C29.4249 17.2253 29.5076 17.101 29.5518 16.9645L29.7775 16.3953C29.8727 16.3082 29.7034 16.0842 29.9926 16.0842C30.2742 16.1026 30.5572 16.0716 30.8253 15.9931C31.0934 15.9146 31.3412 15.7902 31.5546 15.627C31.6363 15.4603 31.7825 15.3247 31.9671 15.2444C32.3444 14.8556 32.3198 14.3952 32.2598 13.9287C32.1787 13.6176 32.2845 13.4216 32.6653 13.3657C32.805 13.3438 32.9375 13.295 33.0532 13.2226C33.5377 13.0542 34.032 12.9088 34.5341 12.7871C34.8867 12.4169 35.4756 12.476 35.9269 12.277C36.2405 12.167 36.5669 12.0877 36.9001 12.0406C36.9926 12.0513 37.0866 12.0453 37.1763 12.0228C37.2661 12.0004 37.3497 11.9619 37.422 11.9099C37.4185 11.8872 37.4185 11.8642 37.422 11.8415C37.5031 11.7451 37.6441 11.8104 37.7393 11.7513C38.431 11.6598 39.1127 11.5172 39.7773 11.3252C40.13 11.2287 40.2252 11.3252 40.2075 11.6362C40.1899 11.9473 40.2075 12.165 40.2075 12.4263C40.2604 12.5165 40.2886 12.6036 40.1864 12.6845C40.1264 12.8897 40.063 13.095 40.003 13.3066C39.9659 13.2758 39.9403 13.2358 39.9295 13.1919C39.9188 13.148 39.9236 13.1023 39.9431 13.0608C39.9431 13.5678 39.5905 14.05 39.5587 14.6005L39.4671 14.8898C39.4252 15.1248 39.3253 15.3489 39.1744 15.5461C39.0051 15.6705 39.0404 15.9256 38.8006 16.0065L38.2752 16.5913C38.1413 16.6441 38.0143 16.7032 38.0425 16.8619L37.5101 17.484C37.3825 17.7413 37.1495 17.9468 36.8578 18.0594C36.209 18.5229 35.5637 18.9926 34.9043 19.4498C34.7822 19.5097 34.6518 19.5557 34.5165 19.5867C34.2205 19.6962 33.9371 19.8306 33.6702 19.9879C33.374 20.1901 32.965 20.2306 32.7041 20.4732C32.1012 20.6665 31.5232 20.9157 30.9799 21.2166C29.6508 21.7308 28.2578 22.1056 26.8297 22.3333C26.7627 22.3333 26.8579 22.3333 26.7909 22.3084C26.7239 22.2835 26.6252 22.3084 26.5476 22.2804C26.6111 22.3115 26.6992 22.2804 26.7451 22.3457L26.1492 22.5106C26.0857 22.6008 25.9623 22.579 25.8741 22.6194C25.6934 22.6606 25.5072 22.6805 25.3206 22.6785C25.0948 22.7507 24.8553 22.7835 24.6153 22.7749C24.5102 22.7998 24.3996 22.7998 24.2945 22.7749C24.1143 22.6759 23.9031 22.6302 23.6915 22.6443C23.7726 22.7096 23.9419 22.6163 24.0618 22.6941C24.0723 22.7164 24.0752 22.7409 24.0702 22.7647C24.0652 22.7884 24.0525 22.8104 24.0335 22.8278C23.889 22.8387 23.7453 22.8574 23.6034 22.8838C23.4863 22.897 23.3678 22.897 23.2508 22.8838C22.5633 22.8185 21.8693 22.8279 21.1845 22.9118C20.7608 22.9601 20.3318 22.9601 19.9081 22.9118C18.2997 22.8529 16.697 22.7064 15.1091 22.4732C15.0031 22.4582 14.8944 22.4735 14.7988 22.5168C14.3722 22.4701 13.9279 22.4857 13.5577 22.2462H13.339C12.9704 22.191 12.6136 22.0861 12.2812 21.9351C12.2573 21.9144 12.2361 21.8914 12.2178 21.8667C11.5856 21.5711 10.89 21.3963 10.1762 21.3534C10.0845 21.3223 9.95756 21.3534 9.90819 21.2415L9.77068 21.1046C9.746 21.0673 9.90114 21.0673 9.80241 21.0331C9.62258 20.9677 9.44981 20.9304 9.2594 20.862C8.93148 20.7656 8.68818 20.4825 8.29679 20.5509L7.75026 20.2585C7.63742 20.1497 7.52811 20.0315 7.33065 20.0564C6.88539 19.8649 6.45954 19.6401 6.05775 19.3845C5.16919 18.7313 4.11842 18.246 3.40969 17.4124C2.9211 16.8766 2.47236 16.3135 2.06626 15.7265C1.82873 15.1424 1.54962 14.572 1.23059 14.0189L1.02608 13.6238C0.652318 13.095 0.754576 12.4885 0.698159 11.913C0.624515 11.6396 0.671135 11.3517 0.828621 11.1074C2.88783 11.5149 4.96468 11.8788 6.92163 12.6067C7.15804 12.7827 7.44946 12.8911 7.7573 12.9177L8.0817 12.9986C8.17821 12.9954 8.27411 13.0134 8.36086 13.0508C8.44761 13.0883 8.52251 13.1441 8.57887 13.2132C8.76575 13.3999 9.05842 13.4248 9.28408 13.5709C9.31906 13.6063 9.34453 13.6481 9.35857 13.6934C9.37262 13.7386 9.37488 13.7861 9.36519 13.8322C9.28807 14.0994 9.27745 14.3782 9.33406 14.6493C9.39067 14.9205 9.51315 15.1776 9.69311 15.403Z" fill="#00BBFE"/>
<path d="M24.8832 16.1374C25.0418 16.2182 25.0172 16.4484 25.2146 16.4795C25.4589 16.5914 25.651 16.7752 25.7576 16.999C25.9639 17.2177 26.1348 17.4605 26.2654 17.7206C26.2755 17.7242 26.2847 17.7297 26.2923 17.7367C26.2998 17.7437 26.3057 17.752 26.3093 17.7611C26.313 17.7703 26.3144 17.7799 26.3135 17.7896C26.3126 17.7992 26.3094 17.8086 26.3042 17.817C26.2407 17.9384 26.2407 18.097 26.0644 18.1592C25.9203 18.3013 25.7418 18.413 25.5421 18.4859C25.3423 18.5588 25.1266 18.5911 24.9108 18.5804C24.695 18.5696 24.4847 18.5161 24.2956 18.4238C24.1064 18.3315 23.9433 18.2028 23.8183 18.0472C23.716 17.9035 23.5756 17.784 23.4093 17.6988C23.1554 17.5531 22.9362 17.365 22.764 17.1452C22.4996 17.111 22.5137 16.6288 22.1046 16.8341C21.8895 17.0954 22.3268 17.1638 22.3056 17.3691C22.3691 17.5838 22.5701 17.6802 22.7499 17.8139C23.0258 17.948 23.2449 18.1576 23.374 18.4111C23.8218 18.8342 23.776 18.9742 23.1519 19.1359C22.5278 19.2976 21.9036 19.1017 21.3113 18.8808C20.9904 18.7626 21.2795 18.5916 21.2337 18.4516C21.2513 18.1094 21.2337 17.7642 21.2337 17.422C21.1982 17.1321 21.0485 16.8624 20.8106 16.6599C20.6435 16.5685 20.4995 16.4479 20.3874 16.3053C20.1658 16.0835 19.8543 15.9473 19.52 15.9259C19.446 15.9601 19.379 15.9694 19.3226 15.901C19.0052 15.8699 18.8677 15.7454 18.8854 15.4344C18.9085 15.1258 18.7976 14.8211 18.5751 14.5821C18.4093 14.5821 18.4375 14.4141 18.36 14.3395C17.7535 13.7329 17.006 13.677 16.1562 13.8325C15.9975 13.8605 15.7154 13.5992 15.5709 13.4219C15.4335 13.2594 15.2553 13.1272 15.0505 13.0355C14.8456 12.9437 14.6194 12.895 14.3896 12.8931C14.1431 12.9553 13.8816 12.9553 13.6351 12.8931C13.226 12.8402 12.9299 13.2042 12.5208 13.1419C12.4186 12.974 12.1682 12.946 12.066 12.7687C11.9342 12.6676 11.7646 12.6133 11.59 12.6163C11.3134 12.6691 11.0273 12.6691 10.7508 12.6163C10.6617 12.6082 10.5717 12.6168 10.4867 12.6415C10.4016 12.6661 10.3234 12.7063 10.2571 12.7594C9.8622 13.1171 9.55191 12.9242 9.16052 12.7282C8.07573 12.1857 6.91687 11.7676 5.71204 11.484C5.57453 11.54 5.48638 11.4529 5.39117 11.3938C4.10769 10.9801 2.76074 10.7717 1.43847 10.4607C1.0365 10.3674 0.951876 10.2554 1.08587 9.89146C1.43443 8.87998 1.96673 7.92509 2.66201 7.06401C2.66201 6.90226 2.8101 6.84938 2.91941 6.75295V6.72807C2.99589 6.53834 3.14738 6.37931 3.34606 6.28016C3.67084 5.92365 4.03853 5.59929 4.44266 5.31279C4.55813 5.14381 4.73626 5.01524 4.94689 4.94886C5.32417 4.76223 5.63447 5.00796 5.93066 5.10749C7.19018 5.53521 8.48137 5.88648 9.7952 6.15885C9.92214 6.11219 10.0138 6.18684 10.1125 6.23039C11.9144 6.74673 13.6809 6.51967 15.4475 5.9971C15.1435 6.2747 14.8608 6.56981 14.6012 6.88049C14.4659 7.12555 14.2543 7.33161 13.9912 7.47459C13.7479 7.67678 13.427 7.81986 13.3248 8.13713C13.2732 8.27421 13.2562 8.41959 13.2751 8.56307C13.294 8.70655 13.3482 8.84464 13.4341 8.96764L13.561 9.08895C13.6668 9.18537 13.8748 9.14805 13.9383 9.30357C14.2386 9.46926 14.5855 9.5576 14.9397 9.55864C15.3317 9.5322 15.7254 9.5322 16.1174 9.55864C16.6707 9.52612 17.1913 9.31586 17.5807 8.96764C18.092 8.5415 18.7232 8.27711 19.2274 7.8603C19.4035 7.69737 19.6194 7.57187 19.8585 7.49326C20.8035 6.99869 21.7661 6.87115 22.757 7.39061C22.8864 7.41376 23.001 7.47934 23.0778 7.57413L25.3733 9.19471C25.5899 9.29211 25.7884 9.41797 25.9621 9.56797C25.9868 9.64262 25.9621 9.75149 26.0961 9.7546C26.3156 9.8174 26.5013 9.94912 26.618 10.1247C26.9245 10.4056 27.2558 10.6646 27.6088 10.8993C27.8242 10.9591 28.0066 11.0878 28.1201 11.2601L28.3881 11.4716C28.5913 11.539 28.7628 11.6651 28.8746 11.8293C29.0756 11.848 29.0404 12.0813 29.2272 12.1404C29.4417 12.2036 29.6232 12.3328 29.7385 12.5043C29.9677 12.5292 29.9148 12.8153 30.1546 12.8371C30.3944 12.8589 30.4684 13.0269 30.5918 13.1482L30.8633 13.3659C31.089 13.4748 31.3464 13.5525 31.3781 13.8294C31.5166 14.0161 31.5781 14.2391 31.5524 14.4611C31.5267 14.683 31.4154 14.8905 31.2371 15.0487C31.1807 15.1762 31.0502 15.2073 30.9268 15.2446L30.3626 15.4157C30.349 15.4364 30.3294 15.4535 30.3059 15.4654C30.2824 15.4773 30.2558 15.4836 30.2286 15.4836C30.2015 15.4836 30.1749 15.4773 30.1514 15.4654C30.1279 15.4535 30.1083 15.4364 30.0947 15.4157L29.5129 15.2384C29.2226 15.1201 28.9776 14.9299 28.8077 14.691L28.3246 14.2928C28.0806 14.1964 27.8745 14.0383 27.7322 13.8387C27.5594 13.7081 27.3232 13.6396 27.2068 13.4499C27.0302 13.3623 26.8811 13.2372 26.7731 13.086C26.5334 13.0206 26.5122 12.7127 26.2231 12.7003C25.8352 12.8589 26.1949 13.0362 26.2231 13.2042C26.9283 13.8636 27.6335 14.4888 28.381 15.1171C29.2378 15.845 29.4141 16.52 28.106 17.1141C27.9861 17.1701 27.8697 17.2323 27.7534 17.2945C27.6787 17.318 27.5983 17.3238 27.5203 17.3113C27.4424 17.2987 27.3695 17.2682 27.3091 17.2229L26.9882 17.1265C26.4769 16.9368 26.1772 16.5417 25.8211 16.1934C25.4455 15.9033 25.0921 15.5916 24.7633 15.2602C24.594 15.114 24.3507 14.8216 24.111 15.0611C23.8712 15.3006 24.2097 15.4624 24.4071 15.6086C24.637 15.7243 24.8074 15.9137 24.8832 16.1374Z" fill="#F2F2F2"/>
<path d="M18.4088 4.86759L19.9743 4.47567C20.0177 4.44172 20.0679 4.41533 20.1224 4.39791C20.3271 4.38965 20.531 4.36886 20.7324 4.3357C21.4109 4.23749 22.1062 4.28443 22.7599 4.47256C24.5723 4.78361 26.1414 5.6981 27.9397 6.02781C28.6311 6.1829 29.3419 6.26024 30.0553 6.25799C30.3727 6.1989 30.7005 6.1989 31.0179 6.25799C31.5357 6.27604 32.0534 6.22145 32.5517 6.09625C32.6011 6.01226 32.6681 6.03093 32.7351 6.07136C33.795 5.94129 34.8245 5.66304 35.7851 5.24708C36.2999 5.02623 36.5926 5.20042 36.8641 5.51769C37.1279 5.83261 37.4319 6.11964 37.7703 6.37308C37.8472 6.39811 37.9159 6.43966 37.9701 6.49397C38.0242 6.54827 38.0622 6.61363 38.0806 6.68413C38.8749 7.56735 39.4828 8.56931 39.8753 9.64223C40.2279 10.7091 40.2279 10.4665 39.1701 10.7029C38.2463 10.9051 37.3295 11.1197 36.4128 11.3499C36.2774 11.3924 36.1562 11.464 36.0601 11.5583C35.7287 11.5832 35.4325 11.7512 35.094 11.7449C33.9915 12.0507 32.9086 12.409 31.85 12.8181C31.6103 12.9052 31.3952 13.0047 31.1977 12.7714C30.9939 12.7049 30.8221 12.5786 30.7111 12.4137L30.3585 12.1026C30.1467 12.0438 29.9646 11.9217 29.8437 11.7574L29.4382 11.4214C29.209 11.4059 29.1244 11.2348 29.001 11.1104L28.7295 10.8989C28.5277 10.829 28.3578 10.7021 28.2464 10.5381L27.9784 10.3297C27.7762 10.2621 27.6059 10.136 27.4954 9.97194L27.2309 9.76043C27.0267 9.69605 26.8545 9.57058 26.7443 9.40583L26.4799 9.19431C26.2626 9.09798 26.0638 8.97201 25.891 8.82105C25.5058 8.37025 25.0025 8.00845 24.4242 7.76659C24.262 7.68883 24.1844 7.53952 24.0716 7.43065C23.4651 6.96408 22.841 6.51928 22.0194 6.38241C21.6668 6.38241 21.3142 6.40419 20.9616 6.38241C20.4077 6.43154 19.8826 6.62419 19.4525 6.93608C19.4172 7.09161 19.2409 7.0605 19.1351 7.12582C18.3418 7.63595 17.559 8.16162 16.748 8.6562C15.937 9.15077 15.0766 9.02635 14.2163 8.75262C13.8989 8.69974 13.8637 8.56599 14.0752 8.36381L14.3362 8.11808C14.4705 7.87157 14.6822 7.66428 14.9462 7.52086C15.619 6.87012 16.3374 6.25719 17.0971 5.68566C17.1923 5.62034 17.3086 5.56435 17.3157 5.43682C17.5308 5.26263 17.8164 5.19109 18.0209 5.02934C18.1456 4.96734 18.2753 4.91329 18.4088 4.86759Z" fill="#F2F2F2"/>
<path d="M34.6817 4.8646C34.5119 4.9618 34.3187 5.02252 34.1175 5.04189C33.6984 5.07341 33.2852 5.14965 32.8869 5.26896C32.623 5.36195 32.3377 5.3982 32.0547 5.37472C31.8925 5.37472 31.9631 5.4867 31.9525 5.42449C31.9525 5.42449 31.9525 5.40271 31.9737 5.40271C32.1006 5.40271 32.3263 5.2503 32.2487 5.55513C31.7515 5.70132 31.2261 5.62356 30.7184 5.70132C30.5068 5.70132 30.2952 5.70132 30.0872 5.70132C29.9187 5.66566 29.7456 5.64997 29.5724 5.65467C29.3836 5.6225 29.1929 5.59965 29.0012 5.58623C28.9271 5.56135 28.8355 5.58623 28.7791 5.50847C28.0915 5.31562 27.3475 5.28451 26.7057 4.95791C26.4073 4.75754 26.0472 4.64152 25.6726 4.62509C25.6248 4.62048 25.5801 4.60186 25.5457 4.57221C24.6712 4.18394 23.7279 3.93041 22.7566 3.82257C22.0725 3.82257 21.3849 3.79147 20.7009 3.82257C20.453 3.82162 20.2062 3.85093 19.9675 3.90967C19.7242 3.96566 19.4703 3.70749 19.2305 3.92522C19.0721 4.00898 18.8898 4.05106 18.7051 4.04653C18.2218 4.09259 17.7723 4.28755 17.4358 4.59709C17.2806 4.83349 16.9104 4.82727 16.7623 5.06989C16.6851 5.17625 16.5659 5.25358 16.4278 5.2869C16.2898 5.32023 16.1426 5.30719 16.0148 5.2503L15.1474 5.32806C15.0577 5.29992 14.9608 5.29522 14.8682 5.31454C14.7756 5.33385 14.6913 5.37635 14.6255 5.43693L13.0141 5.81952H12.933C12.5031 5.8092 12.0729 5.82687 11.646 5.8724C11.5921 5.87859 11.5376 5.87859 11.4838 5.8724C11.2863 5.79775 11.0254 5.91906 10.8667 5.71688C10.3805 5.56839 9.8784 5.46417 9.36816 5.40582C9.04393 5.1541 8.62199 5.0226 8.19046 5.03878C7.63634 4.93475 7.09621 4.7794 6.57906 4.57532C6.08541 4.40113 6.31813 4.19273 6.54732 3.98743C6.85056 3.67638 7.33363 3.61728 7.66508 3.36533C7.71928 3.28998 7.793 3.22708 7.88017 3.18181C8.14632 3.04273 8.43367 2.93798 8.73347 2.87076L9.27649 2.69657C9.64171 2.62988 9.99676 2.52548 10.3343 2.38552C10.8279 1.98737 11.4873 1.94072 12.0762 1.76342C12.7355 1.56434 13.4161 1.42748 14.0895 1.26573C14.1153 1.24189 14.1486 1.22555 14.1852 1.21888C14.2217 1.21221 14.2597 1.21553 14.2941 1.22841C14.3227 1.25604 14.3575 1.27808 14.3964 1.29308C14.4353 1.30808 14.4773 1.31572 14.5197 1.3155C14.4421 1.29684 14.3646 1.27818 14.3998 1.18175C14.9182 1.06044 15.4576 0.99823 15.9724 0.892473C16.1981 0.892473 16.4238 0.786715 16.653 0.892473L16.9844 0.908026C17.1995 1.00445 17.4322 0.908026 17.6297 0.954683C17.7249 0.954683 17.6297 0.848926 17.6614 0.908026C17.6932 0.967125 17.6614 0.929799 17.6262 0.93291C17.4745 0.93291 17.3159 0.988899 17.1748 0.892473C17.8002 0.787374 18.4352 0.73323 19.0718 0.730726C20.8782 0.666918 22.6875 0.723066 24.4843 0.898694C24.5513 0.852036 24.6148 0.842705 24.6712 0.914246L26.0146 1.16931C26.0048 1.1872 25.9892 1.20209 25.9697 1.21207C25.9502 1.22205 25.9278 1.22666 25.9053 1.2253C25.9527 1.23812 26.0027 1.24198 26.0519 1.23662C26.1011 1.23126 26.1485 1.2168 26.1909 1.19419C27.2435 1.35051 28.2835 1.56663 29.3044 1.84118C29.5371 1.83178 29.7655 1.89821 29.9462 2.02781L30.8065 2.31087C30.8899 2.29741 30.9758 2.30355 31.0557 2.32867C31.1355 2.35378 31.2065 2.39699 31.2614 2.45395C31.3037 2.72456 31.5858 2.69968 31.7868 2.765C31.8433 2.80851 31.9095 2.8412 31.9811 2.86101C32.0527 2.88081 32.1282 2.88731 32.2028 2.88009C32.5114 2.96147 32.8014 3.08991 33.0597 3.25957C33.0957 3.32911 33.1566 3.38627 33.2331 3.42225C33.3095 3.45822 33.3973 3.47101 33.4828 3.45864C34.0186 3.63689 34.5011 3.92099 34.8932 4.28915C35.1929 4.58465 35.1929 4.58465 34.6817 4.8646Z" fill="#00BBFE"/>
<path d="M12.461 16.3704L12.2494 15.8976L12.2177 15.8603C12.0625 15.683 12.2988 15.3657 12.0378 15.2817C11.7769 15.1977 11.5936 15.4279 11.3538 15.4715C11.2268 15.4715 11.0893 15.515 10.98 15.4217C10.5755 15.3219 10.2306 15.0878 10.0174 14.7685C9.92515 14.6827 9.86568 14.5735 9.84734 14.4564C9.829 14.3392 9.85272 14.2199 9.91516 14.1153L10.095 13.7296C10.1086 13.6285 10.1606 13.5344 10.2426 13.4626C10.3245 13.3909 10.4316 13.3458 10.5463 13.3345L11.0964 13.1759C11.1563 13.1044 11.2198 13.1044 11.2797 13.1759C11.5719 13.2241 11.8407 13.3491 12.0509 13.5346C12.2611 13.72 12.4028 13.9571 12.4574 14.2148C12.5949 14.2148 12.5526 14.0344 12.6902 14.0313C13.3178 13.6518 13.9525 13.3345 14.7564 13.6269C14.9311 13.6892 15.0863 13.7875 15.209 13.9136C15.3317 14.0397 15.4184 14.1899 15.4616 14.3517C15.6274 14.8618 15.6238 14.8649 16.1034 14.4699C16.2212 14.3842 16.3639 14.3292 16.5152 14.3111C16.6666 14.2929 16.8207 14.3124 16.9602 14.3672L17.6055 14.5632C17.8488 14.5632 17.9581 14.7281 18.018 14.9054C18.2058 15.314 18.2319 15.7666 18.0921 16.19C18.0462 16.3331 17.8875 16.501 18.0533 16.6255C18.219 16.7499 18.3812 16.5881 18.5504 16.5633C18.634 16.5412 18.7154 16.5131 18.7937 16.4793C18.8521 16.4376 18.9249 16.4149 19 16.4149C19.0751 16.4149 19.1479 16.4376 19.2063 16.4793C19.4746 16.537 19.727 16.6419 19.9481 16.7879C20.1693 16.9338 20.3547 17.1177 20.4933 17.3284C20.5969 17.4771 20.6675 17.6418 20.7013 17.8137C20.7125 17.8756 20.7096 17.9389 20.6926 17.9998C20.6757 18.0607 20.6451 18.118 20.6026 18.1683C20.5171 18.4413 20.353 18.6902 20.1263 18.8908C19.8995 19.0914 19.6178 19.2368 19.3085 19.3129C19.1802 19.3749 19.035 19.4045 18.8888 19.3985C18.7426 19.3924 18.6012 19.351 18.4799 19.2787L18.1555 19.1294C17.9686 19.1574 17.9228 19.0206 17.8452 18.921C17.7289 18.8557 17.5773 18.8153 17.609 18.6504C17.5964 18.6055 17.5762 18.5625 17.549 18.5229C17.3586 18.2927 17.5667 17.851 17.2458 17.7919C17.0131 17.7484 16.7063 18.0314 16.4313 18.1683C16.3787 18.2105 16.3102 18.2338 16.2391 18.2338C16.168 18.2338 16.0995 18.2105 16.047 18.1683L15.5921 18.0159C15.2712 17.9537 15.0068 17.8386 14.9398 17.5213C14.9075 17.4495 14.8816 17.3757 14.8622 17.3004C14.7282 16.6783 14.7176 16.6783 14.1288 16.9894C13.7021 17.2227 13.3883 16.9054 13.0216 16.865C12.7642 16.7343 12.4927 16.669 12.461 16.3704Z" fill="#F2F2F2"/>
</svg>
