<svg width="35" height="34" viewBox="0 0 35 34" fill="none" xmlns="http://www.w3.org/2000/svg">
<path d="M17.3067 29C23.9341 29 29.3067 23.6274 29.3067 17C29.3067 10.3726 23.9341 5 17.3067 5C10.6793 5 5.3067 10.3726 5.3067 17C5.3067 23.6274 10.6793 29 17.3067 29Z" stroke="#B99470" stroke-width="1.5" stroke-linecap="round" stroke-linejoin="round"/>
<path d="M17.3067 25C18.1351 25 18.8067 24.3284 18.8067 23.5C18.8067 22.6716 18.1351 22 17.3067 22C16.4783 22 15.8067 22.6716 15.8067 23.5C15.8067 24.3284 16.4783 25 17.3067 25Z" fill="#B99470"/>
<path d="M17.3067 19V18C17.9989 18 18.6756 17.7947 19.2512 17.4101C19.8268 17.0256 20.2754 16.4789 20.5403 15.8394C20.8052 15.1999 20.8745 14.4961 20.7395 13.8172C20.6044 13.1383 20.2711 12.5146 19.7816 12.0251C19.2921 11.5356 18.6685 11.2023 17.9895 11.0673C17.3106 10.9322 16.6069 11.0015 15.9673 11.2664C15.3278 11.5313 14.7811 11.9799 14.3966 12.5555C14.012 13.1311 13.8067 13.8078 13.8067 14.5" stroke="#B99470" stroke-width="1.5" stroke-linecap="round" stroke-linejoin="round"/>
</svg>
