<?xml version="1.0" standalone="no"?>
<!DOCTYPE svg PUBLIC "-//W3C//DTD SVG 20010904//EN"
 "http://www.w3.org/TR/2001/REC-SVG-20010904/DTD/svg10.dtd">
<svg version="1.0" xmlns="http://www.w3.org/2000/svg"
 width="50.000000pt" height="50.000000pt" viewBox="0 0 50.000000 50.000000"
 preserveAspectRatio="xMidYMid meet">

<g transform="translate(0.000000,50.000000) scale(0.100000,-0.100000)"
fill="#000000" stroke="none">
<path d="M137 418 c-63 -46 -114 -84 -112 -86 1 -2 53 33 115 78 130 93 98 95
253 -18 49 -35 90 -62 92 -60 3 3 -140 108 -205 151 l-27 17 -116 -82z"/>
<path d="M74 170 c0 -96 2 -136 3 -87 2 48 2 126 0 175 -1 48 -3 8 -3 -88z"/>
<path d="M434 170 c0 -96 2 -136 3 -87 2 48 2 126 0 175 -1 48 -3 8 -3 -88z"/>
<path d="M100 205 c0 -65 4 -115 9 -115 6 0 11 52 13 115 2 87 0 115 -9 115
-10 0 -13 -30 -13 -115z"/>
<path d="M202 300 c51 -40 53 -145 3 -187 -17 -15 -21 -23 -11 -23 8 0 26 14
40 31 21 25 26 41 26 86 0 47 -4 59 -29 84 -16 16 -35 29 -42 29 -6 0 0 -9 13
-20z"/>
<path d="M343 309 c27 -16 20 -89 -9 -89 -21 0 -17 -14 16 -74 44 -77 64 -77
23 -1 -33 63 -33 64 -13 75 37 20 22 101 -19 100 -13 -1 -13 -2 2 -11z"/>
<path d="M174 30 c2 -16 20 -14 24 2 3 10 2 10 -6 -1 -7 -9 -11 -10 -15 -2 -4
7 -5 8 -3 1z"/>
<path d="M211 24 c0 -11 3 -14 6 -6 3 7 2 16 -1 19 -3 4 -6 -2 -5 -13z"/>
</g>
</svg>
