<svg width="34" height="34" viewBox="0 0 34 34" fill="none" xmlns="http://www.w3.org/2000/svg">
<path d="M12.5625 17.558C13.5915 19.6831 15.3098 21.397 17.4375 22.4205C17.5944 22.4949 17.768 22.527 17.9412 22.5139C18.1143 22.5007 18.2811 22.4427 18.425 22.3455L21.55 20.258C21.6881 20.1644 21.8476 20.1073 22.0137 20.092C22.1799 20.0767 22.3472 20.1037 22.5 20.1705L28.35 22.683C28.5499 22.7663 28.717 22.9129 28.8254 23.1004C28.9338 23.2878 28.9776 23.5058 28.95 23.7205C28.7646 25.1677 28.0582 26.4978 26.9631 27.4618C25.8679 28.4258 24.459 28.9577 23 28.958C18.4913 28.958 14.1673 27.167 10.9792 23.9789C7.79107 20.7907 6 16.4667 6 11.958C6.00033 10.499 6.53227 9.09015 7.49628 7.99499C8.4603 6.89984 9.79033 6.19346 11.2375 6.00805C11.4523 5.98046 11.6702 6.02424 11.8577 6.13266C12.0452 6.24107 12.1918 6.40811 12.275 6.60805L14.7875 12.4705C14.8528 12.621 14.8802 12.7852 14.8671 12.9487C14.854 13.1122 14.8009 13.2699 14.7125 13.408L12.625 16.583C12.5321 16.7267 12.4775 16.8917 12.4666 17.0624C12.4556 17.2331 12.4887 17.4038 12.5625 17.558Z" stroke="#4F4F4F" stroke-width="1.5" stroke-linecap="round" stroke-linejoin="round"/>
</svg>
