<svg width="34" height="34" viewBox="0 0 34 34" fill="none" xmlns="http://www.w3.org/2000/svg">
<path d="M17.9048 28.9663C24.5134 28.4665 29.4656 22.7041 28.9658 16.0956C28.4661 9.487 22.7037 4.53484 16.0951 5.03458C9.48656 5.53433 4.5344 11.2967 5.03414 17.9053C5.53389 24.5138 11.2963 29.466 17.9048 28.9663Z" stroke="#4F4F4F" stroke-width="1.5" stroke-linecap="round" stroke-linejoin="round"/>
<path d="M17.6032 24.978C18.4293 24.9155 19.0483 24.1952 18.9859 23.3691C18.9234 22.5431 18.2031 21.924 17.377 21.9865C16.5509 22.049 15.9319 22.7693 15.9944 23.5953C16.0569 24.4214 16.7772 25.0404 17.6032 24.978Z" fill="#4F4F4F"/>
<path d="M17.1508 18.9946L17.0754 17.9974C17.7656 17.9452 18.4249 17.6895 18.9699 17.2626C19.5148 16.8357 19.9209 16.2568 20.1368 15.5991C20.3527 14.9414 20.3688 14.2345 20.1829 13.5676C19.9971 12.9008 19.6177 12.3041 19.0927 11.8529C18.5677 11.4017 17.9207 11.1164 17.2335 11.0329C16.5463 10.9494 15.8498 11.0716 15.232 11.384C14.6143 11.6964 14.1031 12.1849 13.763 12.7878C13.4229 13.3908 13.2692 14.081 13.3214 14.7713" stroke="#4F4F4F" stroke-width="1.5" stroke-linecap="round" stroke-linejoin="round"/>
</svg>
