<svg width="34" height="34" viewBox="0 0 34 34" fill="none" xmlns="http://www.w3.org/2000/svg">
<path d="M17 18C19.2091 18 21 16.2091 21 14C21 11.7909 19.2091 10 17 10C14.7909 10 13 11.7909 13 14C13 16.2091 14.7909 18 17 18Z" stroke="#4F4F4F" stroke-width="1.5" stroke-linecap="round" stroke-linejoin="round"/>
<path d="M27 14C27 23 17 30 17 30C17 30 7 23 7 14C7 11.3478 8.05357 8.8043 9.92893 6.92893C11.8043 5.05357 14.3478 4 17 4C19.6522 4 22.1957 5.05357 24.0711 6.92893C25.9464 8.8043 27 11.3478 27 14Z" stroke="#4F4F4F" stroke-width="1.5" stroke-linecap="round" stroke-linejoin="round"/>
</svg>
