<svg width="35" height="22" viewBox="0 0 35 22" fill="none" xmlns="http://www.w3.org/2000/svg">
<g clip-path="url(#clip0_1006_877)">
<path d="M34.9816 0.370506L34.6416 0.0144265C34.931 -0.0481282 35.0413 0.0721683 34.9816 0.370506Z" fill="#F7F6F7"/>
<path d="M34.6646 0.0145569H5.05844C4.91844 0.0943745 4.8046 0.216432 4.73168 0.364882C4.65876 0.513331 4.63014 0.681312 4.64954 0.847013C4.64954 1.27527 4.64954 1.70834 4.64954 2.1366C4.64954 2.3772 4.60819 2.46862 4.3601 2.45419C3.90066 2.45419 3.44122 2.45419 2.98178 2.45419C2.88999 2.44237 2.79682 2.45271 2.70942 2.4844C2.62203 2.51608 2.54271 2.56828 2.47753 2.63701C2.41236 2.70573 2.36306 2.78916 2.3334 2.88091C2.30373 2.97265 2.29451 3.07029 2.30641 3.16635C2.30641 3.64754 2.30641 4.09505 2.30641 4.55699C2.30641 4.81202 2.27424 4.91788 2.00317 4.89863C1.60346 4.86976 1.20375 4.89863 0.804034 4.89863C0.16082 4.89863 -0.0229492 5.09111 -0.0229492 5.76959V21.1677C-0.0229492 21.2735 -0.0229492 21.3794 -0.0229492 21.4852C-0.0128216 21.6053 0.0329433 21.7191 0.107922 21.8106C0.182901 21.902 0.283335 21.9666 0.395141 21.9953C0.546948 22.0213 0.701056 22.0294 0.854579 22.0194H29.6108C29.7077 22.0325 29.8062 22.0219 29.8986 21.9883C29.9909 21.9547 30.0744 21.899 30.1426 21.8257C30.2108 21.7524 30.2618 21.6635 30.2915 21.566C30.3212 21.4684 30.3288 21.365 30.3138 21.2639C30.3138 20.8116 30.3138 20.3593 30.3138 19.9069C30.3138 19.6519 30.3505 19.5461 30.6216 19.5653C31.081 19.5942 31.5083 19.5653 31.954 19.5653C32.0474 19.5808 32.1431 19.573 32.2331 19.5425C32.3231 19.512 32.405 19.4598 32.4722 19.3899C32.5393 19.3201 32.5898 19.2346 32.6195 19.1405C32.6492 19.0464 32.6573 18.9463 32.6431 18.8483C32.6431 18.3671 32.6431 17.8475 32.6431 17.347C32.6431 17.1738 32.689 17.1209 32.8498 17.1257C33.2496 17.1257 33.6493 17.1257 34.0444 17.1257C34.2143 17.1536 34.3881 17.1351 34.5492 17.0718C34.7102 17.0086 34.8528 16.9028 34.9633 16.7648V0.370636C34.9415 0.291971 34.9034 0.21929 34.8518 0.157752C34.8002 0.0962131 34.7363 0.0473261 34.6646 0.0145569ZM28.7976 20.7731C24.2522 20.7731 19.7099 20.7731 15.1707 20.7731C10.6268 20.7731 6.08298 20.7731 1.53914 20.7731C1.22213 20.7731 1.15781 20.6768 1.15781 20.3641C1.15781 15.7479 1.15781 11.1332 1.15781 6.52024C1.15781 6.2219 1.19916 6.12086 1.51617 6.12086C10.6039 6.12086 19.69 6.12086 28.7746 6.12086C29.087 6.12086 29.1422 6.21709 29.1422 6.52024C29.1422 11.1493 29.1422 15.7767 29.1422 20.4026C29.1514 20.7009 29.0871 20.7779 28.7976 20.7731ZM31.4899 18.0014C31.4899 18.2757 31.4348 18.3912 31.1591 18.3527C30.8835 18.3142 30.5343 18.473 30.3781 18.2853C30.2219 18.0977 30.3321 17.7656 30.3321 17.4914V5.81289C30.3321 5.07186 30.153 4.8842 29.4454 4.8842C20.9274 4.8842 12.4094 4.8842 3.89146 4.8842C3.55147 4.8842 3.48256 4.78796 3.49175 4.45113C3.51932 3.6716 3.49175 3.6716 4.23604 3.6716H17.4908C22.0331 3.6716 26.577 3.6716 31.1224 3.6716C31.4348 3.6716 31.4899 3.76302 31.4899 4.06617C31.4807 8.71126 31.4807 13.3563 31.4899 18.0014ZM33.4517 15.9131C32.6615 15.889 32.6569 15.9131 32.6569 15.0806V3.33477C32.6569 2.63223 32.4823 2.44938 31.8115 2.44938H19.0437C14.774 2.44938 10.5043 2.44938 6.2346 2.44938C5.94515 2.44938 5.8303 2.40126 5.83949 2.05961C5.86705 1.23197 5.83948 1.23197 6.6389 1.23197C15.5643 1.23197 24.4896 1.23197 33.415 1.23197C33.7687 1.23197 33.833 1.3282 33.8285 1.67466C33.8285 6.28767 33.8285 10.9023 33.8285 15.5185C33.8285 15.8361 33.7458 15.9083 33.4517 15.8986V15.9131Z" fill="#22A95C"/>
<path d="M27.3134 10.3841C26.744 10.3596 26.2031 10.1166 25.7938 9.70126C25.3846 9.28593 25.1356 8.72738 25.0943 8.1321C25.0024 7.45363 24.86 7.3237 24.1754 7.3237H6.14707C6.03393 7.31401 5.92023 7.31401 5.80709 7.3237C5.66459 7.33179 5.52996 7.39471 5.42906 7.5004C5.32815 7.60608 5.26807 7.74708 5.26036 7.89632C5.2424 8.10855 5.21016 8.3192 5.16388 8.52668C5.03954 9.04473 4.75661 9.50586 4.35835 9.83955C3.96009 10.1732 3.46843 10.3611 2.95857 10.3744C2.55426 10.4226 2.33374 10.6295 2.33374 11.0241C2.33374 12.628 2.33374 14.232 2.33374 15.836C2.32231 15.9871 2.36862 16.1369 2.46251 16.2524C2.55639 16.3679 2.69019 16.4396 2.83452 16.4519C3.02749 16.4807 3.22045 16.4856 3.40882 16.5289C3.88858 16.6381 4.32232 16.9054 4.64644 17.2916C4.97055 17.6778 5.168 18.1626 5.20982 18.675C5.29252 19.3871 5.43495 19.5219 6.1287 19.5219H24.2673C24.883 19.5219 25.0392 19.3919 25.0989 18.7616C25.14 18.1694 25.3848 17.6129 25.7878 17.1953C26.1907 16.7777 26.7246 16.5272 27.2904 16.4904C27.8188 16.4904 28.0163 16.2161 28.0163 15.6675C28.0163 14.1662 28.0163 12.6649 28.0163 11.1636C28.0025 10.6439 27.828 10.4466 27.3134 10.3841ZM26.5369 15.4029C25.9313 15.5507 25.3768 15.872 24.9354 16.3309C24.4941 16.7897 24.1832 17.3681 24.0376 18.0013C24.0329 18.0547 24.0174 18.1065 23.9922 18.1532C23.967 18.1998 23.9327 18.2404 23.8915 18.2723C23.8503 18.3041 23.8031 18.3264 23.753 18.3377C23.703 18.3491 23.6512 18.3492 23.6011 18.3381C20.7802 18.3381 17.9592 18.3381 15.1337 18.3381C12.3081 18.3381 9.48719 18.3381 6.66623 18.3381C6.4457 18.3381 6.35382 18.2804 6.29869 18.059C6.15728 17.4056 5.84105 16.8078 5.38703 16.3357C4.93302 15.8635 4.35998 15.5367 3.73502 15.3933C3.5834 15.35 3.49152 15.2922 3.49612 15.0853C3.49612 14.0026 3.49612 12.9151 3.49612 11.8325C3.49612 11.6592 3.52369 11.5678 3.71665 11.5149C4.34689 11.3694 4.92466 11.0393 5.38263 10.5631C5.8406 10.0868 6.15989 9.48404 6.30328 8.82502C6.35381 8.62292 6.44112 8.57961 6.62949 8.57961H23.67C23.863 8.57961 23.9549 8.61329 24.0146 8.84426C24.1603 9.49069 24.4753 10.0817 24.9241 10.551C25.3729 11.0202 25.9378 11.349 26.5553 11.5004C26.7758 11.563 26.808 11.6592 26.8034 11.8613C26.8034 12.9248 26.8034 13.9834 26.8034 15.0468C26.8126 15.273 26.7299 15.3499 26.5369 15.4029Z" fill="#22A95C"/>
<path d="M15.1477 10.3937C14.3797 10.4036 13.6457 10.7269 13.1017 11.2948C12.5578 11.8627 12.2468 12.6305 12.2349 13.4348C12.2385 14.2462 12.5472 15.0234 13.0941 15.5981C13.6411 16.1727 14.3822 16.4985 15.1569 16.5048C15.542 16.5106 15.9242 16.4354 16.281 16.2837C16.6378 16.1319 16.9618 15.9066 17.2339 15.6212C17.506 15.3357 17.7206 14.996 17.865 14.6221C18.0093 14.2482 18.0805 13.8477 18.0743 13.4444C18.078 13.0415 18.0048 12.6419 17.8588 12.269C17.7129 11.8962 17.4973 11.5577 17.2246 11.2734C16.9519 10.9892 16.6277 10.7649 16.271 10.6138C15.9143 10.4627 15.5324 10.3879 15.1477 10.3937ZM15.1753 15.2633C14.9452 15.2646 14.7172 15.2182 14.5043 15.1269C14.2915 15.0356 14.0979 14.9011 13.9348 14.7312C13.7717 14.5613 13.6423 14.3593 13.554 14.1368C13.4657 13.9143 13.4202 13.6757 13.4202 13.4348C13.4297 12.9551 13.6165 12.498 13.9412 12.1596C14.266 11.8213 14.7034 11.6281 15.1615 11.6207C15.6197 11.6258 16.0577 11.8193 16.3809 12.1596C16.7041 12.4999 16.8866 12.9596 16.889 13.4396C16.8914 13.6774 16.8489 13.9133 16.764 14.1338C16.6791 14.3544 16.5534 14.5551 16.3941 14.7246C16.2349 14.8941 16.0452 15.0289 15.836 15.1214C15.6269 15.2138 15.4023 15.2621 15.1753 15.2633Z" fill="#22A95C"/>
</g>
<defs>
<clipPath id="clip0_1006_877">
<rect width="35" height="22" fill="white"/>
</clipPath>
</defs>
</svg>
