<svg width="35" height="34" viewBox="0 0 35 34" fill="none" xmlns="http://www.w3.org/2000/svg">
<path d="M23.6933 10H29.0183C29.2175 9.99872 29.4125 10.0577 29.5776 10.1693C29.7427 10.2808 29.8702 10.4397 29.9433 10.625L31.6933 15" stroke="#B99470" stroke-width="1.5" stroke-linecap="round" stroke-linejoin="round"/>
<path d="M3.6933 18H23.6933" stroke="#B99470" stroke-width="1.5" stroke-linecap="round" stroke-linejoin="round"/>
<path d="M25.1933 27C26.8502 27 28.1933 25.6569 28.1933 24C28.1933 22.3431 26.8502 21 25.1933 21C23.5364 21 22.1933 22.3431 22.1933 24C22.1933 25.6569 23.5364 27 25.1933 27Z" stroke="#B99470" stroke-width="1.5" stroke-miterlimit="10"/>
<path d="M10.1933 27C11.8502 27 13.1933 25.6569 13.1933 24C13.1933 22.3431 11.8502 21 10.1933 21C8.53644 21 7.1933 22.3431 7.1933 24C7.1933 25.6569 8.53644 27 10.1933 27Z" stroke="#B99470" stroke-width="1.5" stroke-miterlimit="10"/>
<path d="M22.1933 24H13.1933" stroke="#B99470" stroke-width="1.5" stroke-linecap="round" stroke-linejoin="round"/>
<path d="M7.1933 24H4.6933C4.42808 24 4.17373 23.8946 3.98619 23.7071C3.79866 23.5196 3.6933 23.2652 3.6933 23V9C3.6933 8.73478 3.79866 8.48043 3.98619 8.29289C4.17373 8.10536 4.42808 8 4.6933 8H23.6933V21.4" stroke="#B99470" stroke-width="1.5" stroke-linecap="round" stroke-linejoin="round"/>
<path d="M23.6933 15H31.6933V23C31.6933 23.2652 31.5879 23.5196 31.4004 23.7071C31.2129 23.8946 30.9585 24 30.6933 24H28.1933" stroke="#B99470" stroke-width="1.5" stroke-linecap="round" stroke-linejoin="round"/>
</svg>
