<svg width="34" height="38" viewBox="0 0 52 52" fill="none" xmlns="http://www.w3.org/2000/svg">
    <path d="M35.1765 15.2942H43.3206C43.6253 15.2922 43.9235 15.3824 44.176 15.553C44.4285 15.7236 44.6235 15.9666 44.7353 16.25L47.4118 22.9412" stroke="#B99470" stroke-width="1.5" stroke-linecap="round" stroke-linejoin="round"/>
    <path d="M4.58813 27.5294H35.1764" stroke="#B99470" stroke-width="1.5" stroke-linecap="round" stroke-linejoin="round"/>
    <path d="M37.4706 41.2941C40.0046 41.2941 42.0588 39.2399 42.0588 36.7059C42.0588 34.1719 40.0046 32.1177 37.4706 32.1177C34.9365 32.1177 32.8823 34.1719 32.8823 36.7059C32.8823 39.2399 34.9365 41.2941 37.4706 41.2941Z" stroke="#B99470" stroke-width="1.5" stroke-miterlimit="10"/>
    <path d="M14.5294 41.2941C17.0634 41.2941 19.1176 39.2399 19.1176 36.7059C19.1176 34.1719 17.0634 32.1177 14.5294 32.1177C11.9954 32.1177 9.94116 34.1719 9.94116 36.7059C9.94116 39.2399 11.9954 41.2941 14.5294 41.2941Z" stroke="#B99470" stroke-width="1.5" stroke-miterlimit="10"/>
    <path d="M32.8824 36.7059H19.1177" stroke="#B99470" stroke-width="1.5" stroke-linecap="round" stroke-linejoin="round"/>
    <path d="M9.94108 36.7059H6.11755C5.71192 36.7059 5.32291 36.5447 5.03609 36.2579C4.74927 35.9711 4.58813 35.5821 4.58813 35.1765V13.7647C4.58813 13.3591 4.74927 12.9701 5.03609 12.6832C5.32291 12.3964 5.71192 12.2353 6.11755 12.2353H35.1764V32.7294" stroke="#B99470" stroke-width="1.5" stroke-linecap="round" stroke-linejoin="round"/>
    <path d="M35.1765 22.9412H47.4118V35.1765C47.4118 35.5821 47.2507 35.9711 46.9639 36.2579C46.677 36.5447 46.288 36.7059 45.8824 36.7059H42.0589" stroke="#B99470" stroke-width="1.5" stroke-linecap="round" stroke-linejoin="round"/>
    </svg>
    