<svg width="61" height="24" viewBox="0 0 61 24" fill="none" xmlns="http://www.w3.org/2000/svg">
<path d="M11.6775 10.1226V13.3614C11.6775 13.5161 11.7041 13.6644 11.4948 13.7288C9.00632 14.4797 6.51119 14.7634 4.01607 13.7836C1.707 12.8716 0.51758 11.0604 0.152116 8.7432C-0.155528 7.11571 0.00541602 5.43745 0.617253 3.89292C1.52759 1.753 3.25856 0.602467 5.54105 0.193174C7.40394 -0.124443 9.31546 -0.0497056 11.1459 0.412321C11.4583 0.486445 11.6177 0.586353 11.5413 0.95375C11.4516 1.39205 11.3553 1.83034 11.2622 2.27186C11.2057 2.53291 11.0795 2.5458 10.8503 2.4749C9.63228 2.10709 8.35639 1.9532 7.08265 2.02049C4.36492 2.12362 2.58744 3.81557 2.43128 6.44536C2.32077 7.53647 2.46382 8.63773 2.84991 9.66814C3.54429 11.344 4.89318 12.1626 6.69393 12.3592C7.46084 12.4263 8.23347 12.3982 8.99303 12.2754C9.26547 12.2367 9.38175 12.1497 9.37843 11.8467C9.35849 10.216 9.37843 8.58206 9.35849 6.95134C9.35849 6.62906 9.44155 6.55816 9.75386 6.57428C10.2688 6.60006 10.7871 6.59683 11.3054 6.57428C11.5911 6.57428 11.6908 6.62584 11.6842 6.92556C11.6642 7.98907 11.6775 9.05581 11.6775 10.1226Z" fill="#C6262C"/>
<path d="M32.6586 9.08799C32.6586 7.54751 32.6586 6.00703 32.6586 4.46333C32.6586 4.30541 32.6121 4.14105 32.8746 4.08949C34.775 3.68664 36.6787 3.39337 38.629 3.72854C39.3131 3.82377 39.9637 4.07686 40.5261 4.46655C41.4696 5.16267 41.7487 6.15528 41.7587 7.22846C41.7819 9.41027 41.7587 11.5953 41.7587 13.7803C41.7587 14.0317 41.6623 14.0768 41.4264 14.0704C40.8849 14.0704 40.34 14.0511 39.7951 14.0704C39.5293 14.0704 39.4629 13.9963 39.4629 13.7481C39.4629 11.8145 39.4629 9.88079 39.4629 7.96647C39.4701 7.70951 39.4623 7.45235 39.4396 7.19623C39.3267 6.15206 38.7153 5.61386 37.5293 5.50106C36.735 5.4414 35.9364 5.46408 35.1471 5.56873C34.8514 5.60418 34.9079 5.78466 34.9079 5.95546V12.8522C34.9079 13.1487 34.8879 13.4452 34.9079 13.7384C34.9278 14.0317 34.8182 14.0833 34.5524 14.0607C34.0341 14.0414 33.5158 14.0382 33.0008 14.0607C32.7051 14.0607 32.6154 13.9995 32.6187 13.703C32.6653 12.1722 32.6586 10.6317 32.6586 9.08799Z" fill="#C6262C"/>
<path d="M60.7628 12.1467C60.6731 12.73 60.5834 13.2618 60.517 13.7936C60.5114 13.8631 60.4813 13.9287 60.4316 13.9792C60.382 14.0297 60.3159 14.062 60.2445 14.0707C59.1241 14.4224 57.9153 14.4055 56.8059 14.0224C55.6596 13.6099 55.1447 12.7139 55.0151 11.5892C54.9814 11.2831 54.9658 10.9753 54.9686 10.6675C54.9686 7.39958 54.9686 4.13491 54.9686 0.870239C54.9686 0.58019 55.0317 0.441614 55.354 0.380382C55.8858 0.276753 56.4241 0.206775 56.9653 0.170898C57.1979 0.170898 57.2511 0.23858 57.2511 0.451283C57.2511 1.49224 57.2511 2.53319 57.2511 3.57415C57.2511 3.87386 57.3408 3.9351 57.6298 3.92865C58.5867 3.91254 59.5402 3.92865 60.497 3.92865C60.7529 3.92865 60.8525 3.97699 60.8094 4.25093C60.7396 4.65378 60.7097 5.06629 60.6798 5.47558C60.6598 5.72374 60.5668 5.82364 60.2877 5.8172C59.3874 5.79786 58.4837 5.8172 57.58 5.8172C57.3208 5.8172 57.2477 5.88165 57.2477 6.13947C57.2477 7.68318 57.2477 9.22689 57.2477 10.7674C57.2477 11.9147 57.8458 12.4658 59.0219 12.469C59.6154 12.4449 60.2019 12.3363 60.7628 12.1467Z" fill="#C6262C"/>
<path d="M30.9572 12.1596C30.9129 12.7285 30.8353 13.2945 30.7246 13.8548C30.698 14.003 30.5984 14.0321 30.4821 14.0675C29.3497 14.4252 28.1266 14.406 27.0069 14.0127C25.8108 13.5712 25.3091 12.6205 25.2327 11.4538C25.1729 10.5579 25.2028 9.65552 25.2028 8.75637C25.2028 6.13303 25.2028 3.51292 25.2028 0.892802C25.2028 0.547965 25.3157 0.422275 25.6447 0.367488C26.1516 0.271301 26.6643 0.205645 27.1796 0.170898C27.4055 0.170898 27.472 0.225688 27.4687 0.444836C27.4687 1.49868 27.4687 2.55253 27.4687 3.60638C27.4687 3.86098 27.5384 3.92865 27.8009 3.92865C28.7677 3.92865 29.7379 3.92865 30.7047 3.92865C30.9904 3.92865 31.0801 3.99634 31.0369 4.27349C30.9705 4.67956 30.9273 5.08885 30.8974 5.49814C30.8974 5.73985 30.7877 5.82042 30.5286 5.82042C29.6116 5.80108 28.698 5.82042 27.781 5.82042C27.5451 5.82042 27.4487 5.86876 27.4687 6.1137C27.4687 7.6574 27.4687 9.19789 27.4687 10.7416C27.4687 11.9308 28.0767 12.4722 29.3026 12.4626C29.8656 12.4331 30.4219 12.3313 30.9572 12.1596Z" fill="#C6262C"/>
<path d="M24.9305 18.8821C25.1764 19.2817 25.4023 19.6588 25.6315 20.0326L26.3326 21.1735C26.4465 21.005 26.5072 20.8078 26.5072 20.6063C26.5072 20.4047 26.4465 20.2076 26.3326 20.0391C26.1133 19.6588 25.8707 19.2914 25.6448 18.9143C25.5254 18.7347 25.4618 18.5254 25.4618 18.3116C25.4618 18.0979 25.5254 17.8886 25.6448 17.709C26.0036 18.4696 26.5884 19.0819 26.8409 19.865C26.8874 20.0101 26.997 20.0262 27.1067 20.0616C27.4508 20.1557 27.771 20.3181 28.0469 20.5386C28.6217 21.0188 28.6184 21.615 28.017 22.0694C27.3634 22.5161 26.5767 22.7425 25.7777 22.714C24.9796 22.7706 24.1818 22.6004 23.4819 22.2241C22.5483 21.6859 22.5483 20.8802 23.4819 20.3356C23.5617 20.2904 23.6447 20.2485 23.7278 20.2099C24.2793 19.9553 24.2793 19.9553 24.5052 20.4709C24.519 20.5061 24.5368 20.5396 24.5584 20.5708C24.8906 21.1445 25.2528 21.7149 25.6182 22.3176C25.7302 22.1544 25.7915 21.9636 25.7951 21.7677C25.7986 21.5718 25.7441 21.379 25.6382 21.2122C25.4222 20.8286 25.183 20.458 24.9538 20.0842C24.8311 19.9072 24.7637 19.6997 24.7595 19.4865C24.7554 19.2732 24.8148 19.0634 24.9305 18.8821Z" fill="#C6262C"/>
<path d="M30.5455 22.6272C30.3066 22.6277 30.0683 22.6039 29.8345 22.5563C29.582 22.5015 29.5255 22.3951 29.5853 22.1502C29.6451 21.9053 29.8146 22.0181 29.9475 22.0471C30.292 22.1499 30.6577 22.1666 31.0107 22.0954C31.2 22.0406 31.3429 21.9633 31.3861 21.7506C31.4032 21.6611 31.3893 21.5687 31.3467 21.4877C31.304 21.4067 31.2349 21.3416 31.1502 21.3026C30.8678 21.1576 30.5754 21.0383 30.2897 20.9062C30.1406 20.851 30.0047 20.7667 29.8904 20.6587C29.7762 20.5506 29.6859 20.421 29.6252 20.2778C29.58 20.1626 29.5602 20.0395 29.5672 19.9164C29.5742 19.7933 29.6077 19.6731 29.6656 19.5634C29.7236 19.4537 29.8047 19.357 29.9036 19.2797C30.0025 19.2023 30.1171 19.146 30.2399 19.1143C30.7032 18.9918 31.1919 18.9918 31.6552 19.1143C31.9011 19.1627 31.8346 19.3174 31.808 19.4656C31.7814 19.6139 31.7084 19.6687 31.5356 19.6203C31.2447 19.5266 30.9349 19.5012 30.6319 19.5462C30.4292 19.5816 30.2432 19.6622 30.2033 19.891C30.1854 19.9872 30.2016 20.0863 30.2492 20.1724C30.2969 20.2584 30.3732 20.3262 30.4658 20.3648C30.7349 20.5001 31.0206 20.6065 31.2931 20.7354C31.8911 21.0222 32.1004 21.38 31.9941 21.8892C31.9044 22.3049 31.4957 22.5821 30.9043 22.624C30.7714 22.6336 30.6651 22.6272 30.5455 22.6272Z" fill="#C6262C"/>
<path d="M43.3067 21.3056C43.3067 20.9834 43.3067 20.6353 43.3067 20.3033C43.3067 20.1615 43.3067 20.052 43.496 20.023C43.9871 19.906 44.4985 19.895 44.9944 19.9907C45.1872 20.0195 45.3627 20.115 45.4885 20.2596C45.6143 20.4041 45.6819 20.5879 45.6788 20.7771C45.7021 21.3024 45.6788 21.8309 45.6788 22.3563C45.6788 22.5818 45.5426 22.5657 45.3964 22.5593C45.2503 22.5528 45.0642 22.6076 45.0642 22.353C45.0642 21.8761 45.0642 21.4023 45.0642 20.9253C45.0803 20.829 45.0612 20.7303 45.0103 20.6461C44.9593 20.562 44.8797 20.4978 44.7851 20.4645C44.5215 20.3694 44.2314 20.3694 43.9678 20.4645C43.8482 20.5128 43.8947 20.645 43.8947 20.7416C43.8947 21.2573 43.8781 21.7697 43.8947 22.2853C43.8947 22.5464 43.7818 22.5657 43.5625 22.5754C43.3432 22.5851 43.2834 22.4755 43.29 22.2757C43.3166 21.947 43.3067 21.6247 43.3067 21.3056Z" fill="#C6262C"/>
<path d="M35.5122 21.3056C35.5122 20.9833 35.5122 20.6417 35.5122 20.3065C35.5122 20.1647 35.5288 20.0552 35.7016 20.0262C36.2163 19.8979 36.7552 19.8913 37.2731 20.0068C37.4497 20.0441 37.6075 20.1396 37.7196 20.2772C37.8317 20.4147 37.8911 20.5857 37.8877 20.761C37.8877 21.2863 37.8877 21.8148 37.8877 22.3369C37.8877 22.5851 37.7449 22.5561 37.5821 22.5625C37.4193 22.5689 37.2864 22.5625 37.293 22.3208C37.3096 21.8986 37.293 21.4764 37.293 21.0542C37.2913 20.9333 37.2579 20.8148 37.1959 20.7099C37.1339 20.605 37.0453 20.5171 36.9386 20.4546C36.8319 20.392 36.7106 20.3568 36.586 20.3524C36.4614 20.3479 36.3377 20.3743 36.2265 20.429C36.0671 20.4967 36.1136 20.6127 36.1136 20.7191C36.1136 21.2444 36.1136 21.7697 36.1136 22.295C36.1136 22.5303 36.0172 22.5689 35.8112 22.5657C35.6053 22.5625 35.479 22.5657 35.479 22.3047C35.5288 21.9727 35.5122 21.6408 35.5122 21.3056Z" fill="#C6262C"/>
<path d="M39.9512 22.1114C39.9678 22.3724 39.9711 22.5754 39.6455 22.6173C39.0841 22.6882 38.6488 22.5078 38.5292 22.1146C38.4902 21.965 38.4713 21.8112 38.4727 21.6569C38.4727 20.9286 38.4727 20.197 38.4727 19.4687C38.4727 19.1464 38.6256 19.0787 38.8947 19.0723C39.2269 19.0723 39.0475 19.3011 39.0807 19.43C39.0973 19.5054 39.0973 19.5834 39.0807 19.6588C39.0243 19.9585 39.1638 20.0488 39.4495 20.0069C39.569 20.0004 39.6888 20.0004 39.8083 20.0069C39.908 20.0069 40.0044 20.0262 39.9811 20.1519C39.9579 20.2776 40.0409 20.4194 39.8549 20.4742C39.8162 20.4775 39.7773 20.4775 39.7386 20.4742C39.0741 20.5257 39.0741 20.5258 39.0741 21.1639V21.3927C39.0774 22.1339 39.1738 22.2177 39.9512 22.1114Z" fill="#C6262C"/>
<path d="M18.8735 20.0937C19.1759 19.9841 19.2789 20.0937 19.3652 20.3161C19.6078 20.9252 19.8736 21.5246 20.1593 22.1982C20.4317 21.5246 20.6842 20.909 20.9201 20.3032C21.0032 20.0808 21.1195 19.9809 21.3919 20.1001C20.97 21.0927 20.558 22.0854 20.1228 23.0715C20.0583 23.2295 19.9411 23.362 19.79 23.4478C19.6388 23.5337 19.4624 23.568 19.2888 23.5453C19.1991 23.5453 19.0928 23.5614 19.0895 23.4228C19.0862 23.2842 19.126 23.2262 19.2722 23.2391C19.3785 23.2492 19.4854 23.2293 19.5803 23.1818C19.6752 23.1344 19.7539 23.0614 19.8071 22.9716C19.8754 22.8867 19.9178 22.785 19.9295 22.6779C19.9413 22.5708 19.9219 22.4627 19.8736 22.3657C19.5247 21.6181 19.2058 20.8607 18.8735 20.0937Z" fill="#C6262C"/>
<path d="M52.7454 21.499C52.7454 21.7568 52.7454 22.0146 52.7454 22.2692C52.7454 22.5238 52.6624 22.5689 52.4132 22.5689C52.164 22.5689 52.1175 22.5077 52.1241 22.2853C52.1374 21.6408 52.1374 20.9865 52.1241 20.3226C52.1241 20.1164 52.1873 20.0261 52.3999 20.0004C52.7404 19.9478 53.085 19.9241 53.4298 19.9295C53.6092 19.9295 53.6558 20.0068 53.6425 20.1647C53.6292 20.3226 53.6192 20.3968 53.4265 20.4129C52.7288 20.4677 52.7288 20.4773 52.7288 21.1573L52.7454 21.499Z" fill="#C6262C"/>
<path d="M23.3054 7.32536C23.249 6.49019 22.9202 5.69409 22.3665 5.05217C21.8128 4.41025 21.0631 3.95579 20.2256 3.75449C19.6459 3.61408 19.0482 3.55654 18.4514 3.58368C16.0659 3.67392 14.5077 4.8438 13.9529 7.00308C13.629 8.24252 13.629 9.54076 13.9529 10.7802C14.3084 12.1692 15.1091 13.2489 16.4978 13.7903C18.4083 14.5222 20.5363 14.5106 22.4383 13.7581C22.5346 13.7258 22.6443 13.7033 22.6709 13.5776C22.7938 12.9653 22.92 12.3529 23.0031 11.6987L22.5944 11.8502C21.4807 12.2752 20.2886 12.4727 19.0926 12.4303C17.4746 12.3755 16.5178 11.6471 16.1257 10.2356C16.0294 9.88427 16.1025 9.81014 16.458 9.81336C18.5976 9.82948 20.7339 9.81336 22.8702 9.82948C23.1626 9.82948 23.2622 9.74891 23.2822 9.47819C23.358 8.76279 23.3658 8.04214 23.3054 7.32536ZM20.8037 7.98603H18.478C17.7637 7.98603 17.046 7.96992 16.335 7.98603C16.0028 7.98603 15.9762 7.90869 16.0294 7.61863C16.3616 5.85576 17.7836 4.99849 19.5046 5.54315C19.9744 5.70677 20.3785 6.01094 20.6586 6.41178C20.9387 6.81262 21.0802 7.28939 21.0628 7.77333C21.0661 8.00859 20.9366 7.98603 20.8037 7.98603Z" fill="#C6262C"/>
<path d="M53.0941 7.45408C52.9479 5.58486 51.7651 4.18938 49.981 3.75108C49.4015 3.60999 48.8035 3.5535 48.2068 3.58349C45.8446 3.68662 44.3163 4.82427 43.7448 6.94488C43.406 8.20759 43.406 9.53341 43.7448 10.7961C44.1269 12.2722 45.0173 13.3744 46.519 13.8836C48.3632 14.5135 50.3802 14.4746 52.197 13.774C52.2745 13.7576 52.3445 13.7174 52.3966 13.6593C52.4487 13.6012 52.4801 13.5284 52.4861 13.4517C52.5758 12.8845 52.6888 12.3173 52.8183 11.6824C52.6356 11.7501 52.5093 11.792 52.3864 11.8403C51.2621 12.2729 50.0566 12.4716 48.8481 12.4236C47.2533 12.3592 46.3097 11.6405 45.9177 10.2418C45.8247 9.91952 45.8479 9.80028 46.2499 9.8035C48.3862 9.82606 50.5225 9.8035 52.6589 9.81961C52.9246 9.81961 53.0476 9.78738 53.0775 9.49733C53.1396 8.81779 53.1452 8.13449 53.0941 7.45408ZM50.5325 7.99229C49.7883 7.97617 49.0474 7.99229 48.3032 7.99229C47.559 7.99229 46.8147 7.99229 46.0738 7.99229C45.828 7.99229 45.7416 7.94717 45.7981 7.69256C46.0008 6.72572 46.3795 5.87169 47.4593 5.54618C49.2235 5.01764 50.6222 5.90391 50.8249 7.66034C50.8648 7.90849 50.8083 7.99551 50.5325 7.99229Z" fill="#C6262C"/>
<path d="M48.6521 20.8255C48.6521 20.3517 48.6521 19.8748 48.6521 19.401C48.6521 19.2592 48.7451 19.04 48.4328 19.0787C48.2135 19.1013 48.064 19.1303 48.0706 19.401C48.0706 19.9038 48.0706 19.9005 47.5158 19.9295C46.961 19.9585 46.5191 20.1003 46.3064 20.5967C46.1751 20.8505 46.1162 21.1339 46.1361 21.4173C46.156 21.7007 46.2538 21.9738 46.4194 22.208C46.58 22.4153 46.8127 22.5589 47.0742 22.6123C47.3358 22.6656 47.6084 22.6251 47.8414 22.4981C47.951 22.4369 48.0374 22.2371 48.1537 22.5239C48.1936 22.6206 48.4261 22.5787 48.5657 22.5497C48.7052 22.5207 48.6521 22.3821 48.6521 22.2918C48.6554 21.7988 48.6521 21.3121 48.6521 20.8255ZM48.074 21.2509C48.0673 21.3528 48.0673 21.4551 48.074 21.557C48.1138 21.8793 48.0507 22.1049 47.6653 22.1597C47.4913 22.2051 47.3061 22.1848 47.147 22.1029C46.9879 22.0209 46.8668 21.8834 46.8081 21.7182C46.5423 20.9641 46.9643 20.3549 47.7085 20.4001C47.9743 20.4001 48.1238 20.4967 48.074 20.79C48.0623 20.9434 48.0623 21.0975 48.074 21.2509Z" fill="#C6262C"/>
<path d="M51.0377 20.0359C50.8036 19.9246 50.5412 19.8815 50.2824 19.9118C50.0235 19.9421 49.7793 20.0445 49.5792 20.2067C49.0941 20.616 49.0775 21.1735 49.2137 21.7311C49.2645 21.9587 49.3883 22.1649 49.5673 22.3201C49.7464 22.4753 49.9715 22.5714 50.2104 22.5948C50.5115 22.6393 50.8182 22.6338 51.1175 22.5786C51.4696 22.5239 51.576 22.3402 51.5029 21.9953C51.2028 22.0971 50.8872 22.1494 50.5693 22.15C50.43 22.1586 50.2909 22.1309 50.1664 22.0697C50.042 22.0085 49.9367 21.916 49.8616 21.802C49.752 21.6183 49.7021 21.4797 50.031 21.4797C50.4663 21.4958 50.9048 21.4797 51.3401 21.4797C51.473 21.4797 51.5992 21.499 51.649 21.3185C51.707 21.0693 51.6785 20.8084 51.5679 20.5765C51.4574 20.3446 51.271 20.1545 51.0377 20.0359ZM50.7753 21.0285C50.6424 21.0285 50.5095 21.0285 50.3766 21.0285C50.297 21.0349 50.2169 21.0349 50.1374 21.0285C50.0177 21.0092 49.8417 21.1091 49.7885 20.9511C49.7751 20.8744 49.7849 20.7954 49.8167 20.7239C49.8485 20.6525 49.9011 20.5914 49.9679 20.5483C50.0395 20.487 50.1239 20.4415 50.2152 20.4147C50.3066 20.3879 50.4029 20.3805 50.4975 20.3931C50.592 20.4056 50.6827 20.4378 50.7633 20.4873C50.844 20.5369 50.9126 20.6028 50.9646 20.6804C51.0709 20.8835 51.1009 21.0543 50.7586 21.0285H50.7753Z" fill="#C6262C"/>
<path d="M34.8812 22.2628C34.8812 21.9405 34.8812 21.6472 34.8812 21.3411C34.8812 21.0349 34.8812 20.6482 34.8812 20.3001C34.8812 20.1357 34.8413 20.0326 34.6586 20.0004C34.2209 19.9068 33.7674 19.9068 33.3296 20.0004C33.0874 20.0489 32.8677 20.1716 32.7026 20.3502C32.5376 20.5289 32.4359 20.7542 32.4126 20.993C32.3362 21.5409 32.3761 22.092 32.901 22.4433C33.0715 22.5689 33.2778 22.6407 33.4917 22.6488C33.7057 22.6568 33.9171 22.6008 34.0971 22.4884C34.2034 22.4271 34.2665 22.3111 34.3729 22.5174C34.4293 22.6366 34.642 22.5818 34.7815 22.556C34.9211 22.5303 34.8779 22.3627 34.8812 22.2628ZM33.931 22.15C33.771 22.1971 33.5991 22.188 33.4454 22.1243C33.2917 22.0607 33.166 21.9465 33.0904 21.8019C32.7349 21.0865 33.1635 20.3871 33.9476 20.3903C34.22 20.3903 34.3363 20.4774 34.3031 20.7481C34.2931 20.9144 34.2931 21.0812 34.3031 21.2476C34.3031 21.3507 34.3031 21.4539 34.3031 21.5699C34.3263 21.8406 34.3164 22.1016 33.931 22.15Z" fill="#C6262C"/>
<path d="M42.6687 22.2817C42.6687 21.9595 42.6687 21.6372 42.6687 21.3149V20.738C42.6687 19.9484 42.6687 19.9452 41.8447 19.9194H41.6853C40.4792 19.9194 39.8513 20.796 40.2666 21.9014C40.319 22.0588 40.4087 22.202 40.5285 22.3195C40.6483 22.4371 40.7949 22.5258 40.9565 22.5784C41.118 22.6311 41.2901 22.6463 41.4588 22.6227C41.6275 22.5992 41.7881 22.5376 41.9278 22.4429C42.0607 22.3623 42.0707 22.3462 42.1537 22.4977C42.2368 22.6491 42.4494 22.5686 42.5956 22.5396C42.7418 22.5105 42.6654 22.372 42.6687 22.2817ZM42.0873 21.2311V21.5727C42.0873 21.7983 42.1471 22.0497 41.8115 22.1206C41.476 22.1915 41.147 22.2076 40.9477 21.9111C40.8362 21.7498 40.7716 21.5623 40.7605 21.3684C40.7494 21.1745 40.7922 20.9812 40.8846 20.8089C40.9646 20.6671 41.0863 20.5515 41.2342 20.4769C41.3821 20.4023 41.5495 20.372 41.7152 20.39C42.0042 20.39 42.1305 20.4737 42.0906 20.7638C42.0794 20.9193 42.0783 21.0754 42.0873 21.2311Z" fill="#C6262C"/>
<path d="M17.2222 20.0134C16.7504 20.0747 16.6807 19.9361 16.7405 19.5623C16.7488 19.524 16.7488 19.4845 16.7405 19.4462C16.7139 19.3399 16.8235 19.1659 16.5943 19.1594C16.365 19.153 16.365 19.2819 16.3684 19.443C16.3684 19.9039 16.3684 20.368 16.3684 20.8288V21.7537C16.3684 22.6142 16.3883 22.6303 17.2986 22.6207C18.209 22.611 18.6708 22.1179 18.6276 21.1769C18.591 20.3454 18.1026 19.8942 17.2222 20.0134ZM18.1093 21.9213C17.9 22.3048 17.5046 22.321 17.1126 22.3113C16.8235 22.3113 16.7172 22.1888 16.7438 21.9117C16.7554 21.7077 16.7554 21.5033 16.7438 21.2993C16.7304 21.1848 16.7304 21.0691 16.7438 20.9545C16.7936 20.745 16.5777 20.4517 16.9431 20.339C17.1417 20.2627 17.3603 20.2504 17.5667 20.3038C17.773 20.3572 17.9563 20.4734 18.0894 20.6354C18.2084 20.8293 18.2729 21.0501 18.2764 21.2758C18.2799 21.5015 18.2223 21.7241 18.1093 21.9213Z" fill="#C6262C"/>
</svg>
