<svg width="42" height="19" viewBox="0 0 42 19" fill="none" xmlns="http://www.w3.org/2000/svg">
<path d="M8.42668 5.78289C8.46856 6.35998 8.3272 6.86156 7.67271 6.89392C7.01823 6.92628 6.80357 6.51638 6.73026 5.87458C6.68049 5.23843 6.40845 4.64245 5.9646 4.19715C5.52075 3.75185 4.93521 3.48745 4.31653 3.45297C3.728 3.45818 3.15834 3.66752 2.69951 4.0472C2.24067 4.42687 1.91942 4.95473 1.78761 5.54558C1.70231 5.89697 1.72614 6.26706 1.85576 6.60376C1.98538 6.94045 2.21425 7.22679 2.51015 7.42246C3.23558 7.95566 4.00671 8.41961 4.81394 8.80855C5.39512 9.13754 5.98677 9.45575 6.55224 9.82789C7.87691 10.6962 8.64659 11.8935 8.40574 13.5762C8.31803 14.3378 8.02546 15.059 7.56104 15.6584C7.09661 16.2578 6.47881 16.7117 5.77733 16.9687C5.25375 17.1682 4.97625 17.357 5.06002 17.9826C5.09672 18.1105 5.10149 18.2459 5.07388 18.3763C5.04628 18.5066 4.9872 18.6277 4.9021 18.7282C4.817 18.8288 4.70865 18.9056 4.58707 18.9516C4.46549 18.9975 4.33462 19.0111 4.20657 18.9911C3.55733 18.9911 3.32695 18.5543 3.38454 17.9556C3.44213 17.357 3.26936 17.1844 2.7353 16.9902C1.9545 16.7065 1.27617 16.1844 0.790697 15.4936C0.305219 14.8027 0.0356421 13.9759 0.0178843 13.1232C0.0178843 12.5839 0.174959 12.1416 0.777083 12.0985C1.37921 12.0553 1.64624 12.4113 1.71431 13.0369C1.73541 13.6155 1.94537 14.1698 2.31023 14.6102C2.67508 15.0507 3.1735 15.3514 3.72488 15.4639C4.2051 15.5664 4.70412 15.5185 5.15764 15.3262C5.61117 15.134 5.99842 14.8062 6.26951 14.3852C7.00776 13.3066 6.87163 12.2279 5.80351 11.4728C5.04955 10.9335 4.23276 10.529 3.41596 10.0652C2.89238 9.76856 2.36878 9.48811 1.89756 9.16451C0.567648 8.29618 -0.196784 7.09886 0.0440652 5.42154C0.131417 4.64427 0.432641 3.90893 0.912238 3.30215C1.39183 2.69538 2.02982 2.24246 2.75101 1.99677C2.85684 1.97973 2.9581 1.94027 3.04838 1.88089C3.13867 1.8215 3.21601 1.74348 3.27554 1.65175C3.33508 1.56002 3.3755 1.45657 3.39426 1.34793C3.41302 1.2393 3.40971 1.12783 3.38454 1.02058C3.33218 0.411135 3.57827 -0.00415122 4.22228 0.0012421C4.86629 0.00663543 5.10191 0.438101 5.04432 1.03676C4.98672 1.63542 5.15426 1.8134 5.69356 2.00217C6.46587 2.27535 7.14005 2.78249 7.62776 3.45713C8.11546 4.13176 8.39393 4.94243 8.42668 5.78289Z" fill="#22A95C"/>
<path d="M41.9825 5.80374C42.0087 6.40779 41.8359 6.88241 41.1867 6.88241C40.5375 6.88241 40.349 6.52105 40.2809 5.90621C40.2596 5.27835 40.0155 4.68034 39.5948 4.22542C39.1742 3.7705 38.6062 3.49026 37.9984 3.43775C37.3907 3.38525 36.7853 3.56413 36.297 3.94053C35.8086 4.31693 35.4713 4.86471 35.3487 5.48014C35.2503 5.84268 35.2685 6.22832 35.4006 6.57932C35.5327 6.93031 35.7717 7.22776 36.0817 7.42713C36.7865 7.93981 37.5327 8.38912 38.3122 8.77007C38.9458 9.13142 39.595 9.46042 40.1971 9.84874C41.4485 10.7009 42.192 11.8658 41.9564 13.4784C41.8811 14.2267 41.6065 14.939 41.163 15.5367C40.7195 16.1343 40.1243 16.5942 39.4431 16.8655C38.8567 17.1082 38.5059 17.3185 38.6002 18.052C38.6787 18.6345 38.3175 18.9689 37.7363 18.9473C37.6231 18.9595 37.5088 18.9438 37.4027 18.9015C37.2966 18.8592 37.2018 18.7916 37.1261 18.7041C37.0504 18.6167 36.996 18.5119 36.9674 18.3985C36.9387 18.2851 36.9367 18.1664 36.9614 18.052C37.0661 17.3131 36.6891 17.1189 36.1184 16.8655C35.3945 16.5749 34.7691 16.0722 34.3196 15.4194C33.8701 14.7666 33.6163 13.9924 33.5895 13.1926C33.5528 12.5993 33.7204 12.1463 34.3748 12.1139C35.0293 12.0816 35.2126 12.4753 35.2806 13.0847C35.3072 13.7172 35.5591 14.3175 35.9884 14.7706C36.4177 15.2237 36.994 15.4978 37.6072 15.5406C38.2205 15.5833 38.8274 15.3916 39.312 15.0022C39.7966 14.6128 40.1248 14.053 40.2338 13.4299C40.3113 13.0783 40.2803 12.7105 40.1452 12.3779C40.01 12.0453 39.7774 11.7645 39.4798 11.5746C38.8455 11.1085 38.1727 10.7007 37.4692 10.3557C36.7624 9.96199 36.0346 9.58446 35.3749 9.12603C34.1235 8.27388 33.38 7.10893 33.6156 5.49632C33.6883 4.74164 33.9633 4.02265 34.4099 3.41975C34.8565 2.81684 35.4571 2.35378 36.1446 2.08234C36.7257 1.83964 37.0922 1.6347 36.9875 0.89581C36.9643 0.785691 36.9658 0.671557 36.992 0.56214C37.0182 0.452722 37.0683 0.350921 37.1385 0.264522C37.2087 0.178123 37.2972 0.109415 37.3972 0.0636566C37.4972 0.0178983 37.606 -0.00369851 37.7153 0.000517312C38.2965 0.000517312 38.6578 0.31333 38.5792 0.89581C38.485 1.6347 38.8463 1.83425 39.4222 2.08234C40.1546 2.3782 40.7871 2.88803 41.2419 3.54917C41.6968 4.2103 41.9542 4.99394 41.9825 5.80374Z" fill="#22A95C"/>
<path d="M14.6411 13.8188L16.4527 15.6309C16.8925 16.0732 17.0339 16.5855 16.5574 17.0548C16.0809 17.524 15.6411 17.3136 15.238 16.8984L12.1593 13.7325C12.0411 13.641 11.9453 13.5225 11.8792 13.3863C11.8132 13.2501 11.7788 13.1 11.7788 12.9477C11.7788 12.7955 11.8132 12.6454 11.8792 12.5092C11.9453 12.373 12.0411 12.2545 12.1593 12.163L15.238 8.99712C15.6516 8.57105 16.1176 8.45779 16.5574 8.87847C16.6534 8.96478 16.729 9.07251 16.7785 9.19347C16.828 9.31442 16.8501 9.44541 16.843 9.57647C16.8359 9.70753 16.7999 9.83519 16.7377 9.94976C16.6755 10.0643 16.5888 10.1628 16.4841 10.2376C15.9186 10.8093 15.3427 11.3702 14.6044 12.0983H24.2803C24.851 12.0983 25.1861 12.368 25.1809 12.972C25.1756 13.5761 24.8248 13.8295 24.2594 13.8295H14.6411V13.8188Z" fill="#22A95C"/>
<path d="M27.3426 6.90399C24.0807 6.90399 21.0334 6.90399 17.9914 6.90399C17.384 6.90399 16.829 6.83927 16.8238 6.04645C16.8185 5.25363 17.3474 5.16734 17.9757 5.16734C21.0177 5.16734 24.0597 5.16734 27.306 5.16734C26.7195 4.56328 26.196 4.02395 25.6724 3.48462C25.1488 2.94528 24.8765 2.50303 25.4263 1.94213C25.9761 1.38122 26.4316 1.72639 26.8662 2.17943C27.8086 3.16102 28.7668 4.12643 29.704 5.10801C30.4161 5.85229 30.4161 6.18668 29.704 6.92017C28.7458 7.92333 27.7667 8.91031 26.8086 9.91346C26.3897 10.3503 25.9185 10.6038 25.4263 10.1238C24.9341 9.6438 25.1383 9.09368 25.5938 8.63525C26.1593 8.12288 26.6829 7.57815 27.3426 6.90399Z" fill="#22A95C"/>
</svg>
