<svg width="34" height="35" viewBox="0 0 34 35" fill="white"  stroke="#B99470" xmlns="http://www.w3.org/2000/svg">
<path d="M6.67534 23.7433C5.18645 21.2313 4.66565 18.2622 5.21072 15.3934C5.75579 12.5247 7.32925 9.95353 9.63569 8.16267C11.9421 6.37181 14.823 5.4844 17.7373 5.66704C20.6517 5.84968 23.3992 7.08982 25.464 9.15463C27.5288 11.2194 28.7689 13.9669 28.9516 16.8813C29.1342 19.7956 28.2468 22.6765 26.4559 24.9829C24.6651 27.2894 22.0939 28.8628 19.2252 29.4079C16.3564 29.9529 13.3873 29.4322 10.8753 27.9433L6.72534 29.1183C6.55531 29.168 6.37503 29.1711 6.20341 29.1272C6.03178 29.0833 5.87513 28.994 5.74986 28.8687C5.6246 28.7435 5.53534 28.5868 5.49144 28.4152C5.44753 28.2436 5.45061 28.0633 5.50034 27.8933L6.67534 23.7433Z" stroke-width="1.5" stroke-linecap="round" stroke-linejoin="round"/>
<path d="M20.013 24.6182C18.6972 24.6215 17.3938 24.3648 16.1775 23.8628C14.9612 23.3607 13.8562 22.6234 12.9258 21.693C11.9954 20.7625 11.258 19.6575 10.756 18.4412C10.254 17.2249 9.99722 15.9215 10.0005 14.6057C10.0038 13.6796 10.374 12.7926 11.0301 12.1389C11.6861 11.4852 12.5744 11.1182 13.5005 11.1182C13.6533 11.117 13.8036 11.157 13.9356 11.234C14.0676 11.3109 14.1764 11.4221 14.2505 11.5557L15.713 14.1057C15.8 14.2607 15.8446 14.4359 15.8424 14.6136C15.8402 14.7913 15.7913 14.9654 15.7005 15.1182L14.5255 17.0807C15.1274 18.4196 16.1992 19.4913 17.538 20.0932L19.5005 18.9182C19.6533 18.8274 19.8274 18.7785 20.0051 18.7763C20.1828 18.7741 20.358 18.8187 20.513 18.9057L23.063 20.3682C23.1966 20.4423 23.3078 20.5511 23.3848 20.6831C23.4618 20.8151 23.5017 20.9654 23.5005 21.1182C23.4973 22.0433 23.1292 22.9297 22.4762 23.585C21.8232 24.2404 20.9381 24.6116 20.013 24.6182Z" stroke-width="1.5" stroke-linecap="round" stroke-linejoin="round"/>
</svg>
